<svg width="86" height="86" viewBox="0 0 86 86" fill="none" xmlns="http://www.w3.org/2000/svg">
<path d="M85.9287 0.0356445H0V85.9644H85.9287V0.0356445Z" fill="#007F7F"/>
<path d="M26.5663 22.2533L25.0357 25.231C25.0357 25.231 23.5764 22.9511 24.3182 21.6495C24.9447 20.6756 25.8594 21.1262 25.9914 21.2308C26.1248 21.3355 26.5268 21.557 26.5663 22.2533Z" fill="#F8FAFC"/>
<path d="M23.2289 26.3931L20.6986 21.4918H19.0103L22.9846 29.1933C23.5307 28.7913 23.7689 27.4398 23.2289 26.3931Z" fill="#F8FAFC"/>
<path d="M14 38.3708V31.9056C14 31.7767 14.0607 31.7114 14.1851 31.7114H15.1817C15.2985 31.7114 15.3577 31.7767 15.3577 31.9056V38.3708C15.3577 38.4937 15.2985 38.5559 15.1817 38.5559H14.1851C14.0607 38.5544 14 38.4937 14 38.3708Z" fill="#F8FAFC"/>
<path d="M16.8502 31.9147C16.8502 31.8601 16.8669 31.8115 16.9003 31.7721C16.9336 31.7327 16.9852 31.7114 17.052 31.7114H18.1305C18.179 31.7114 18.2306 31.722 18.2822 31.7433C18.3338 31.7645 18.3732 31.8009 18.3975 31.8495L21.4314 36.2122V31.8495C21.4496 31.7949 21.4784 31.7569 21.5194 31.7387C21.5588 31.7205 21.5982 31.7114 21.6346 31.7114H22.566C22.6146 31.7114 22.6646 31.7296 22.7132 31.766C22.7617 31.8024 22.7875 31.8525 22.7875 31.9132V38.3511C22.7875 38.4861 22.7132 38.5544 22.566 38.5544H21.6528C21.5785 38.5544 21.5254 38.5407 21.492 38.5134C21.4587 38.4861 21.4223 38.4512 21.3859 38.4072L18.1851 33.7957V38.3511C18.1912 38.4861 18.1229 38.5544 17.9818 38.5544H17.0504C16.9154 38.5544 16.8472 38.4861 16.8472 38.3511V31.9147H16.8502Z" fill="#F8FAFC"/>
<path d="M24.0164 37.5122C23.9679 37.4576 23.9299 37.4015 23.9057 37.3468C23.8814 37.2922 23.9026 37.23 23.9709 37.1618L24.5883 36.5535C24.6429 36.5049 24.6975 36.4883 24.7491 36.5034C24.8007 36.5186 24.8553 36.5505 24.9099 36.6005C25.0024 36.693 25.1056 36.7871 25.2193 36.8811C25.3331 36.9767 25.456 37.0632 25.588 37.139C25.7199 37.2164 25.8625 37.2771 26.0173 37.3241C26.1705 37.3696 26.3343 37.3939 26.5057 37.3939C26.6908 37.3939 26.8531 37.3696 26.9942 37.3195C27.1352 37.271 27.2566 37.2043 27.3582 37.1208C27.4599 37.0374 27.5372 36.9433 27.5888 36.8356C27.6404 36.7279 27.6677 36.6157 27.6677 36.4989C27.6677 36.3517 27.6237 36.2273 27.5342 36.1257C27.4447 36.0241 27.3355 35.9376 27.2065 35.8678C27.0776 35.7965 26.938 35.7389 26.7864 35.6919C26.6362 35.6464 26.4996 35.6069 26.3753 35.5766C25.632 35.3551 25.0646 35.0836 24.6732 34.7605C24.2834 34.4374 24.0877 34.0156 24.0877 33.4923C24.0877 33.2101 24.1484 32.9507 24.2682 32.7171C24.3881 32.4835 24.5564 32.2818 24.7749 32.1134C24.9933 31.945 25.2558 31.813 25.5637 31.722C25.8716 31.6295 26.2099 31.584 26.5785 31.584C26.9851 31.584 27.3734 31.6796 27.7451 31.8692C28.1167 32.0603 28.4413 32.2939 28.7174 32.57C28.8282 32.6868 28.8251 32.8066 28.7083 32.9295L28.2017 33.4741C28.1395 33.5287 28.0818 33.5469 28.0257 33.5242C27.9711 33.5029 27.9119 33.468 27.8497 33.418C27.7754 33.3558 27.692 33.289 27.5964 33.2147C27.5008 33.1404 27.3962 33.0721 27.2824 33.0069C27.1686 32.9416 27.0488 32.8886 26.9229 32.8461C26.797 32.8036 26.6665 32.7809 26.5315 32.7809C26.4147 32.7809 26.2933 32.79 26.1674 32.8082C26.0415 32.8264 25.9278 32.8628 25.8261 32.9143C25.7245 32.9674 25.6395 33.0402 25.5728 33.1358C25.5045 33.2314 25.4712 33.3588 25.4712 33.5181C25.4712 33.6349 25.503 33.7365 25.5682 33.823C25.6335 33.9095 25.7245 33.9838 25.8443 34.049C25.9642 34.1142 26.1052 34.1734 26.2691 34.2295C26.4314 34.2841 26.6119 34.3403 26.8091 34.3949C27.1231 34.4874 27.4174 34.5906 27.695 34.7043C27.9711 34.8181 28.2123 34.9577 28.4186 35.1245C28.6249 35.2899 28.7887 35.4871 28.9116 35.7146C29.0345 35.9422 29.0967 36.2152 29.0967 36.5353C29.0967 36.8554 29.0254 37.1451 28.8843 37.4075C28.7432 37.6684 28.5536 37.8914 28.3169 38.0765C28.0803 38.2616 27.8073 38.4026 27.4963 38.5012C27.1853 38.5998 26.8652 38.6484 26.533 38.6484C26.0537 38.6484 25.5925 38.5437 25.1496 38.3344C24.7081 38.1235 24.3289 37.8505 24.0164 37.5122Z" fill="#F8FAFC"/>
<path d="M29.5215 32.7626V31.8858C29.5215 31.769 29.5806 31.7098 29.6974 31.7098H34.5395C34.6624 31.7098 34.7246 31.769 34.7246 31.8858V32.7626C34.7246 32.8855 34.6624 32.9477 34.5395 32.9477H32.7677V38.3707C32.7677 38.4936 32.7086 38.5558 32.5918 38.5558H31.5951C31.4783 38.5558 31.4192 38.4951 31.4192 38.3707V32.9477H29.6944C29.5806 32.9477 29.5215 32.8855 29.5215 32.7626Z" fill="#F8FAFC"/>
<path d="M35.7104 38.3708V31.9056C35.7104 31.7767 35.7711 31.7114 35.8955 31.7114H36.8921C37.009 31.7114 37.0681 31.7767 37.0681 31.9056V38.3708C37.0681 38.4937 37.009 38.5559 36.8921 38.5559H35.8955C35.7711 38.5544 35.7104 38.4937 35.7104 38.3708Z" fill="#F8FAFC"/>
<path d="M38.0073 32.7626V31.8858C38.0073 31.769 38.0665 31.7098 38.1833 31.7098H43.0254C43.1482 31.7098 43.2104 31.769 43.2104 31.8858V32.7626C43.2104 32.8855 43.1482 32.9477 43.0254 32.9477H41.2551V38.3707C41.2551 38.4936 41.1959 38.5558 41.0791 38.5558H40.0825C39.9657 38.5558 39.9065 38.4951 39.9065 38.3707V32.9477H38.1818C38.065 32.9477 38.0073 32.8855 38.0073 32.7626Z" fill="#F8FAFC"/>
<path d="M45.4493 31.9146V35.8526C45.4493 36.068 45.4842 36.2713 45.5555 36.4609C45.6268 36.652 45.7254 36.8174 45.8558 36.9585C45.9848 37.0995 46.1395 37.2118 46.3215 37.2952C46.5021 37.3787 46.7008 37.4196 46.9162 37.4196C47.1316 37.4196 47.3288 37.3787 47.5063 37.2952C47.6853 37.2118 47.8385 37.0995 47.9674 36.9585C48.0964 36.8174 48.1965 36.6505 48.2678 36.4609C48.3391 36.2698 48.374 36.068 48.374 35.8526V31.9146C48.374 31.86 48.3937 31.8115 48.4346 31.772C48.4741 31.7326 48.5257 31.7114 48.5863 31.7114H49.4995C49.5541 31.7114 49.6072 31.7296 49.6558 31.766C49.7043 31.8024 49.7301 31.8524 49.7301 31.9131V35.8511C49.7301 36.2379 49.6558 36.602 49.5086 36.9433C49.3615 37.2846 49.1597 37.5834 48.9049 37.8383C48.6501 38.0931 48.3512 38.2949 48.0099 38.442C47.6686 38.5892 47.3045 38.6635 46.9177 38.6635C46.5309 38.6635 46.1638 38.5892 45.821 38.442C45.4766 38.2949 45.1763 38.0931 44.9214 37.8383C44.6666 37.5834 44.4648 37.2846 44.3177 36.9433C44.1705 36.602 44.0962 36.2379 44.0962 35.8511V31.9131C44.0962 31.8646 44.1144 31.8175 44.1508 31.7751C44.1872 31.7326 44.2342 31.7098 44.2888 31.7098H45.2384C45.287 31.7098 45.3355 31.7296 45.381 31.7705C45.4265 31.8115 45.4493 31.8585 45.4493 31.9146Z" fill="#F8FAFC"/>
<path d="M50.5767 32.7626V31.8858C50.5767 31.769 50.6358 31.7098 50.7526 31.7098H55.5947C55.7176 31.7098 55.7798 31.769 55.7798 31.8858V32.7626C55.7798 32.8855 55.7176 32.9477 55.5947 32.9477H53.8229V38.3707C53.8229 38.4936 53.7638 38.5558 53.647 38.5558H52.6503C52.5335 38.5558 52.4744 38.4951 52.4744 38.3707V32.9477H50.7496C50.6358 32.9477 50.5767 32.8855 50.5767 32.7626Z" fill="#F8FAFC"/>
<path d="M56.7656 38.3708V31.8965C56.7656 31.7736 56.8233 31.7114 56.9416 31.7114H61.4515C61.5743 31.7114 61.6365 31.7736 61.6365 31.8965V32.7915C61.6365 32.9144 61.5743 32.9766 61.4515 32.9766H58.1127V34.3691H60.6581C60.7931 34.3691 60.8614 34.4313 60.8614 34.5542V35.4279C60.8614 35.5508 60.7931 35.613 60.6581 35.613H58.1127V37.3014H61.5349C61.6638 37.3014 61.7291 37.3636 61.7291 37.4864V38.3723C61.7291 38.4952 61.6638 38.5574 61.5349 38.5574H56.9416C56.8233 38.5544 56.7656 38.4937 56.7656 38.3708Z" fill="#F8FAFC"/>
<path d="M14.4399 48.7845V43.5784C14.4399 43.501 14.4763 43.4615 14.5507 43.4615H18.1064C18.1792 43.4615 18.2171 43.501 18.2171 43.5784V43.7543C18.2171 43.8378 18.1807 43.8787 18.1064 43.8787H14.851V46.0859H17.4617C17.5345 46.0859 17.5709 46.1253 17.5709 46.2027V46.4014C17.5709 46.4696 17.5345 46.5045 17.4617 46.5045H14.851V48.7845C14.851 48.8619 14.8116 48.9013 14.7342 48.9013H14.5507C14.4763 48.9028 14.4399 48.8634 14.4399 48.7845Z" fill="#F8FAFC"/>
<path d="M18.2158 46.1891C18.2158 45.8022 18.2886 45.4397 18.4358 45.0999C18.5829 44.7601 18.7816 44.4628 19.0335 44.2095C19.2853 43.9561 19.5811 43.7544 19.9209 43.6087C20.2607 43.4616 20.6232 43.3888 21.01 43.3888C21.3908 43.3888 21.7518 43.4616 22.0916 43.6087C22.4314 43.7559 22.7272 43.9561 22.979 44.2095C23.2308 44.4643 23.4296 44.7601 23.5767 45.0999C23.7238 45.4397 23.7967 45.8022 23.7967 46.1891C23.7967 46.5759 23.7238 46.9369 23.5767 47.2737C23.4296 47.6104 23.2308 47.9047 22.979 48.1565C22.7272 48.4084 22.4314 48.6071 22.0916 48.7542C21.7518 48.9014 21.3893 48.9742 21.0024 48.9742C20.6156 48.9742 20.2546 48.9014 19.9178 48.7542C19.5811 48.6071 19.2853 48.4084 19.0335 48.1565C18.7816 47.9047 18.5829 47.6104 18.4358 47.2737C18.2902 46.9369 18.2158 46.5759 18.2158 46.1891ZM18.6421 46.1815C18.6421 46.5091 18.7043 46.8156 18.8287 47.1023C18.9531 47.389 19.1214 47.6377 19.3353 47.8501C19.5477 48.0625 19.798 48.2309 20.0862 48.3568C20.3744 48.4812 20.6824 48.5434 21.01 48.5434C21.3331 48.5434 21.638 48.4812 21.9263 48.3568C22.2145 48.2324 22.4648 48.064 22.6771 47.8501C22.8895 47.6377 23.0579 47.3875 23.1838 47.1023C23.3082 46.8171 23.3704 46.5091 23.3704 46.1815C23.3704 45.8584 23.3082 45.5535 23.1838 45.2653C23.0594 44.977 22.891 44.7267 22.6771 44.5144C22.4648 44.302 22.2145 44.1336 21.9263 44.0077C21.638 43.8833 21.3331 43.8211 21.01 43.8211C20.6824 43.8211 20.3744 43.8833 20.0862 44.0077C19.798 44.1321 19.5477 44.3005 19.3353 44.5144C19.123 44.7267 18.9546 44.977 18.8287 45.2653C18.7043 45.5535 18.6421 45.8599 18.6421 46.1815Z" fill="#F8FAFC"/>
<path d="M26.9711 43.4615C27.2063 43.4615 27.4262 43.5071 27.6341 43.5966C27.8419 43.6876 28.0209 43.8089 28.1726 43.9637C28.3243 44.1169 28.4441 44.2989 28.5321 44.5067C28.6201 44.7145 28.6641 44.936 28.6641 45.1696C28.6641 45.517 28.5715 45.8295 28.3849 46.1086C28.1984 46.3877 27.9572 46.5925 27.6583 46.7245L28.5821 48.7633C28.6019 48.7982 28.6034 48.83 28.5897 48.8588C28.5746 48.8877 28.5457 48.9028 28.5017 48.9028H28.2454C28.2059 48.9028 28.1741 48.8816 28.1498 48.8361L27.2487 46.8337C27.2002 46.8428 27.1517 46.8519 27.1016 46.8595C27.0531 46.8671 26.9969 46.8701 26.9332 46.8701H25.1447V48.7693C25.1447 48.8573 25.1008 48.9013 25.0128 48.9013H24.858C24.7701 48.9013 24.7261 48.8573 24.7261 48.7693V43.5859C24.7261 43.5025 24.7701 43.4615 24.858 43.4615H26.9711ZM26.8468 46.453C27.0318 46.453 27.2093 46.4241 27.3777 46.365C27.5461 46.3058 27.6947 46.2224 27.8252 46.1116C27.9541 46.0009 28.0573 45.8674 28.1331 45.7081C28.209 45.5489 28.2469 45.3699 28.2469 45.1696C28.2469 44.9937 28.2135 44.8268 28.1483 44.6706C28.0815 44.5143 27.9905 44.3778 27.8737 44.2595C27.7569 44.1427 27.6189 44.0486 27.4626 43.9803C27.3064 43.9121 27.138 43.8772 26.956 43.8772H25.1447V46.4514H26.8468V46.453Z" fill="#F8FAFC"/>
<path d="M31.9575 48.7557V43.6087C31.9575 43.5116 32.0045 43.4615 32.0971 43.4615H35.6088C35.7059 43.4615 35.7559 43.5101 35.7559 43.6087V44.3201C35.7559 44.4172 35.7074 44.4673 35.6088 44.4673H33.027V45.9038H34.999C35.0915 45.9038 35.1385 45.9524 35.1385 46.051V46.726C35.1385 46.8231 35.0915 46.8732 34.999 46.8732H33.027V48.7572C33.027 48.8543 32.9784 48.9043 32.8798 48.9043H32.0956C32.003 48.9028 31.9575 48.8543 31.9575 48.7557Z" fill="#F8FAFC"/>
<path d="M37.5522 43.6239V46.7549C37.5522 46.9263 37.5795 47.0871 37.6356 47.2388C37.6917 47.3905 37.7721 47.5225 37.8738 47.6347C37.9769 47.747 38.0998 47.8365 38.2439 47.9017C38.388 47.9685 38.5458 48.0003 38.7172 48.0003C38.8886 48.0003 39.0449 47.9669 39.1859 47.9017C39.327 47.835 39.4499 47.747 39.553 47.6347C39.6562 47.5225 39.7351 47.3905 39.7912 47.2388C39.8473 47.0871 39.8761 46.9263 39.8761 46.7549V43.6239C39.8761 43.5799 39.8913 43.542 39.9232 43.5102C39.955 43.4783 39.9945 43.4631 40.0445 43.4631H40.7711C40.8151 43.4631 40.8561 43.4783 40.8955 43.5071C40.935 43.5359 40.9547 43.5754 40.9547 43.6239V46.7549C40.9547 47.0628 40.8955 47.3526 40.7787 47.6241C40.6619 47.8956 40.5011 48.1323 40.2978 48.3356C40.0946 48.5388 39.8579 48.6981 39.5864 48.8164C39.3149 48.9332 39.0251 48.9924 38.7172 48.9924C38.4093 48.9924 38.118 48.9332 37.8449 48.8164C37.5719 48.6996 37.3322 48.5388 37.1305 48.3356C36.9272 48.1323 36.7679 47.8956 36.6496 47.6241C36.5328 47.3526 36.4736 47.0628 36.4736 46.7549V43.6239C36.4736 43.5845 36.4888 43.5481 36.5176 43.5147C36.5464 43.4798 36.5844 43.4631 36.6284 43.4631H37.3838C37.4232 43.4631 37.4612 43.4783 37.4976 43.5102C37.534 43.542 37.5522 43.5784 37.5522 43.6239Z" fill="#F8FAFC"/>
<path d="M41.6279 44.2974V43.6011C41.6279 43.5086 41.675 43.4615 41.7675 43.4615H45.6175C45.7146 43.4615 45.7646 43.5086 45.7646 43.6011V44.2974C45.7646 44.3945 45.7161 44.4445 45.6175 44.4445H44.2098V48.7557C44.2098 48.8528 44.1627 48.9028 44.0702 48.9028H43.2784C43.1858 48.9028 43.1388 48.8543 43.1388 48.7557V44.4445H41.7675C41.675 44.4445 41.6279 44.396 41.6279 44.2974Z" fill="#F8FAFC"/>
<path d="M47.5458 43.6239V46.7549C47.5458 46.9263 47.5731 47.0871 47.6293 47.2388C47.6854 47.3905 47.7658 47.5225 47.8674 47.6347C47.9706 47.747 48.0934 47.8365 48.2376 47.9017C48.3817 47.9685 48.5394 48.0003 48.7108 48.0003C48.8823 48.0003 49.0385 47.9669 49.1796 47.9017C49.3207 47.835 49.4435 47.747 49.5467 47.6347C49.6498 47.5225 49.7287 47.3905 49.7848 47.2388C49.841 47.0871 49.8698 46.9263 49.8698 46.7549V43.6239C49.8698 43.5799 49.885 43.542 49.9168 43.5102C49.9487 43.4783 49.9881 43.4631 50.0382 43.4631H50.7648C50.8088 43.4631 50.8497 43.4783 50.8892 43.5071C50.9286 43.5359 50.9483 43.5754 50.9483 43.6239V46.7549C50.9483 47.0628 50.8892 47.3526 50.7724 47.6241C50.6556 47.8956 50.4948 48.1323 50.2915 48.3356C50.0882 48.5388 49.8516 48.6981 49.58 48.8164C49.3085 48.9332 49.0188 48.9924 48.7108 48.9924C48.4029 48.9924 48.1117 48.9332 47.8386 48.8164C47.5656 48.6996 47.3259 48.5388 47.1241 48.3356C46.9209 48.1323 46.7616 47.8956 46.6433 47.6241C46.5264 47.3526 46.4673 47.0628 46.4673 46.7549V43.6239C46.4673 43.5845 46.4825 43.5481 46.5113 43.5147C46.5401 43.4798 46.578 43.4631 46.622 43.4631H47.3775C47.4169 43.4631 47.4548 43.4783 47.4912 43.5102C47.5276 43.542 47.5458 43.5784 47.5458 43.6239Z" fill="#F8FAFC"/>
<path d="M52.0615 48.7557V43.6087C52.0615 43.5693 52.0721 43.5359 52.0949 43.5055C52.1161 43.4767 52.1525 43.4615 52.2011 43.4615H54.5326C54.7814 43.4615 55.0135 43.5116 55.2259 43.6117C55.4382 43.7118 55.6203 43.8453 55.772 44.0107C55.9237 44.1775 56.042 44.3672 56.1269 44.5826C56.2119 44.798 56.2559 45.0194 56.2559 45.25C56.2559 45.558 56.1709 45.8477 56.0025 46.1192C55.8342 46.3908 55.6097 46.6062 55.3321 46.7685L56.3287 48.7481C56.3484 48.783 56.3499 48.8164 56.3332 48.8512C56.3165 48.8861 56.2832 48.9028 56.2346 48.9028H55.2881C55.2152 48.9028 55.1591 48.8619 55.1197 48.7784L54.2474 47.0188H53.1325V48.7572C53.1325 48.8543 53.0839 48.9043 52.9853 48.9043H52.2011C52.1085 48.9028 52.0615 48.8543 52.0615 48.7557ZM54.2763 44.4081H53.1325V46.051H54.2763C54.5311 46.051 54.742 45.9736 54.9103 45.8204C55.0787 45.6672 55.1637 45.47 55.1637 45.2303C55.1637 45.1135 55.1424 45.0043 55.0969 44.9042C55.0529 44.804 54.9907 44.7176 54.9103 44.6432C54.8299 44.5704 54.7359 44.5128 54.6282 44.4703C54.5205 44.4278 54.4037 44.4081 54.2763 44.4081Z" fill="#F8FAFC"/>
<path d="M56.9824 48.7557V43.6087C56.9824 43.5116 57.0294 43.4615 57.122 43.4615H60.708C60.8051 43.4615 60.8552 43.5101 60.8552 43.6087V44.3201C60.8552 44.4172 60.8066 44.4673 60.708 44.4673H58.0534V45.5747H60.077C60.1847 45.5747 60.2378 45.6232 60.2378 45.7218V46.4181C60.2378 46.5152 60.1847 46.5652 60.077 46.5652H58.0534V47.9077H60.7733C60.8764 47.9077 60.9265 47.9562 60.9265 48.0548V48.7587C60.9265 48.8558 60.8749 48.9059 60.7733 48.9059H57.122C57.0279 48.9028 56.9824 48.8543 56.9824 48.7557Z" fill="#F8FAFC"/>
<path d="M14 52.1795V51.4832C14 51.3907 14.047 51.3436 14.1396 51.3436H17.9896C18.0866 51.3436 18.1367 51.3907 18.1367 51.4832V52.1795C18.1367 52.2765 18.0882 52.3266 17.9896 52.3266H16.5818V56.6378C16.5818 56.7348 16.5348 56.7849 16.4423 56.7849H15.6504C15.5579 56.7849 15.5109 56.7364 15.5109 56.6378V52.3266H14.1396C14.047 52.3266 14 52.2781 14 52.1795Z" fill="#F8FAFC"/>
<path d="M18.9194 56.6378V51.4908C18.9194 51.3937 18.9665 51.3436 19.059 51.3436H22.645C22.7421 51.3436 22.7922 51.3922 22.7922 51.4908V52.2022C22.7922 52.2993 22.7436 52.3494 22.645 52.3494H19.9904V53.4567H22.014C22.1217 53.4567 22.1748 53.5053 22.1748 53.6039V54.3001C22.1748 54.3972 22.1217 54.4473 22.014 54.4473H19.9904V55.7898H22.7103C22.8134 55.7898 22.8635 55.8383 22.8635 55.9369V56.6408C22.8635 56.7379 22.8119 56.7879 22.7103 56.7879H19.059C18.9665 56.7849 18.9194 56.7364 18.9194 56.6378Z" fill="#F8FAFC"/>
<path d="M26.9791 55.5168C27.0762 55.4439 27.155 55.4439 27.2142 55.5168L27.5813 56.1402C27.6207 56.1842 27.6344 56.2221 27.6253 56.254C27.6162 56.2859 27.5889 56.3192 27.5449 56.3526C27.334 56.5088 27.1004 56.6332 26.841 56.7258C26.5816 56.8183 26.2858 56.8653 25.9536 56.8653C25.5668 56.8653 25.2027 56.7925 24.8614 56.6454C24.5186 56.4982 24.2198 56.298 23.9634 56.0447C23.707 55.7913 23.5053 55.4925 23.3581 55.1497C23.211 54.8068 23.1382 54.4428 23.1382 54.0575C23.1382 53.6661 23.211 53.302 23.3581 52.9653C23.5053 52.6285 23.707 52.3327 23.9634 52.0779C24.2198 51.823 24.5201 51.6243 24.8614 51.4802C25.2043 51.3361 25.5683 51.2648 25.9536 51.2648C26.2858 51.2648 26.5816 51.3103 26.841 51.3998C27.1004 51.4908 27.3371 51.6137 27.5525 51.7699C27.5919 51.8048 27.6116 51.8382 27.6116 51.8731C27.6116 51.908 27.6071 51.9337 27.5965 51.9535L27.2081 52.6133C27.1641 52.6725 27.0959 52.674 27.0034 52.6209C26.8319 52.5132 26.6651 52.4298 26.5012 52.3721C26.3374 52.3145 26.1554 52.2842 25.9551 52.2842C25.7064 52.2842 25.4758 52.3297 25.2665 52.4207C25.0556 52.5117 24.8736 52.6361 24.7204 52.7984C24.5671 52.9592 24.4458 53.1473 24.3578 53.3627C24.2698 53.5781 24.2258 53.8102 24.2258 54.059C24.2258 54.3078 24.2698 54.5414 24.3578 54.7598C24.4458 54.9767 24.5671 55.1679 24.7204 55.3317C24.8736 55.4955 25.0571 55.6245 25.2665 55.72C25.4773 55.8156 25.7064 55.8626 25.9551 55.8626C26.1554 55.8626 26.345 55.8292 26.524 55.764C26.6984 55.6958 26.8517 55.6138 26.9791 55.5168Z" fill="#F8FAFC"/>
<path d="M32.0894 56.6378V54.4383H29.6471V56.6378C29.6471 56.7349 29.594 56.785 29.4863 56.785H28.7172C28.6247 56.785 28.5776 56.7364 28.5776 56.6378V51.4984C28.5776 51.4544 28.5883 51.418 28.611 51.3892C28.6322 51.3604 28.6687 51.3452 28.7172 51.3452H29.509C29.5379 51.3452 29.5682 51.3543 29.6001 51.374C29.6319 51.3938 29.6471 51.4332 29.6471 51.4908V53.4052H32.0894V51.4984C32.0894 51.4544 32.1 51.418 32.1227 51.3892C32.144 51.3604 32.1804 51.3452 32.2289 51.3452H33.0208C33.0496 51.3452 33.0799 51.3543 33.1087 51.374C33.1376 51.3938 33.1527 51.4332 33.1527 51.4908V56.6378C33.1527 56.7349 33.1012 56.785 32.9995 56.785H32.2304C32.1349 56.785 32.0894 56.7364 32.0894 56.6378Z" fill="#F8FAFC"/>
<path d="M34.2451 51.506C34.2451 51.462 34.2588 51.4241 34.2861 51.3922C34.3134 51.3604 34.3528 51.3452 34.4074 51.3452H35.266C35.3055 51.3452 35.3449 51.3543 35.3874 51.371C35.4283 51.3877 35.4587 51.4165 35.4784 51.456L37.8903 54.9237V51.456C37.9055 51.412 37.9283 51.3831 37.9601 51.368C37.992 51.3528 38.0223 51.3467 38.0511 51.3467H38.7914C38.8308 51.3467 38.8703 51.3619 38.9082 51.3907C38.9476 51.4195 38.9674 51.459 38.9674 51.5075V56.6257C38.9674 56.7334 38.9082 56.7865 38.7914 56.7865H38.0648C38.0056 56.7865 37.9631 56.7759 37.9358 56.7531C37.9085 56.7304 37.8812 56.7031 37.8509 56.6682L35.307 53.0017V56.6242C35.3115 56.7319 35.2584 56.785 35.1462 56.785H34.4059C34.2982 56.785 34.2451 56.7319 34.2451 56.6242V51.506Z" fill="#F8FAFC"/>
<path d="M45.3826 54.065C45.3826 54.4518 45.3098 54.8143 45.1626 55.1541C45.0155 55.4939 44.8152 55.7897 44.5619 56.0416C44.3071 56.2934 44.0097 56.4921 43.6669 56.6392C43.3241 56.7864 42.96 56.8592 42.5747 56.8592C42.1879 56.8592 41.8253 56.7864 41.4855 56.6392C41.1457 56.4921 40.8499 56.2934 40.5981 56.0416C40.3463 55.7897 40.1491 55.4939 40.0035 55.1541C39.8594 54.8143 39.7881 54.4518 39.7881 54.065C39.7881 53.6736 39.8594 53.308 40.0035 52.9682C40.1476 52.6284 40.3463 52.3326 40.5981 52.0808C40.8499 51.829 41.1457 51.6303 41.4855 51.4831C41.8253 51.336 42.1879 51.2632 42.5747 51.2632C42.96 51.2632 43.3256 51.336 43.6669 51.4831C44.0097 51.6303 44.3071 51.829 44.5619 52.0808C44.8152 52.3326 45.017 52.6284 45.1626 52.9682C45.3098 53.308 45.3826 53.6736 45.3826 54.065ZM44.304 54.065C44.304 53.8162 44.26 53.5841 44.172 53.3687C44.0841 53.1533 43.9627 52.9667 43.8095 52.8074C43.6563 52.6482 43.4727 52.5222 43.2634 52.4297C43.0525 52.3372 42.8235 52.2902 42.5747 52.2902C42.3305 52.2902 42.1029 52.3372 41.8921 52.4297C41.6812 52.5222 41.4992 52.6482 41.346 52.8074C41.1928 52.9667 41.0714 53.1533 40.9865 53.3687C40.9015 53.5841 40.8575 53.8162 40.8575 54.065C40.8575 54.3092 40.9 54.5398 40.9865 54.7537C41.0714 54.9691 41.1913 55.1557 41.346 55.3149C41.4992 55.4742 41.6827 55.6001 41.8921 55.6927C42.1014 55.7852 42.329 55.8322 42.5747 55.8322C42.8235 55.8322 43.0541 55.7852 43.2634 55.6927C43.4743 55.6001 43.6563 55.4742 43.8095 55.3149C43.9627 55.1557 44.0841 54.9691 44.172 54.7537C44.26 54.5383 44.304 54.3092 44.304 54.065Z" fill="#F8FAFC"/>
<path d="M46.314 51.4983C46.314 51.4543 46.3292 51.4164 46.358 51.3845C46.3868 51.3527 46.4293 51.3375 46.4824 51.3375H47.2302C47.3334 51.3375 47.3865 51.3921 47.391 51.4983V55.7882H49.5315C49.5754 55.7882 49.6134 55.8034 49.6452 55.8322C49.6771 55.861 49.6922 55.9035 49.6922 55.9566V56.6241C49.6922 56.7272 49.6392 56.7803 49.5315 56.7849H46.4733C46.3656 56.7849 46.3125 56.7318 46.3125 56.6241V51.4983H46.314Z" fill="#F8FAFC"/>
<path d="M55.531 54.065C55.531 54.4518 55.4582 54.8143 55.311 55.1541C55.1639 55.4939 54.9637 55.7897 54.7103 56.0416C54.4555 56.2934 54.1582 56.4921 53.8153 56.6392C53.4725 56.7864 53.1084 56.8592 52.7231 56.8592C52.3363 56.8592 51.9738 56.7864 51.634 56.6392C51.2942 56.4921 50.9984 56.2934 50.7466 56.0416C50.4948 55.7897 50.2976 55.4939 50.1519 55.1541C50.0078 54.8143 49.9365 54.4518 49.9365 54.065C49.9365 53.6736 50.0078 53.308 50.1519 52.9682C50.296 52.6284 50.4948 52.3326 50.7466 52.0808C50.9984 51.829 51.2942 51.6303 51.634 51.4831C51.9738 51.336 52.3363 51.2632 52.7231 51.2632C53.1084 51.2632 53.474 51.336 53.8153 51.4831C54.1582 51.6303 54.4555 51.829 54.7103 52.0808C54.9637 52.3326 55.1654 52.6284 55.311 52.9682C55.4567 53.308 55.531 53.6736 55.531 54.065ZM54.4525 54.065C54.4525 53.8162 54.4085 53.5841 54.3205 53.3687C54.2325 53.1533 54.1111 52.9667 53.9579 52.8074C53.8047 52.6482 53.6212 52.5222 53.4118 52.4297C53.201 52.3372 52.9719 52.2902 52.7231 52.2902C52.4789 52.2902 52.2514 52.3372 52.0405 52.4297C51.8297 52.5222 51.6476 52.6482 51.4944 52.8074C51.3412 52.9667 51.2199 53.1533 51.1349 53.3687C51.05 53.5841 51.006 53.8162 51.006 54.065C51.006 54.3092 51.0484 54.5398 51.1349 54.7537C51.2199 54.9691 51.3397 55.1557 51.4944 55.3149C51.6476 55.4742 51.8312 55.6001 52.0405 55.6927C52.2499 55.7852 52.4774 55.8322 52.7231 55.8322C52.9719 55.8322 53.2025 55.7852 53.4118 55.6927C53.6227 55.6001 53.8047 55.4742 53.9579 55.3149C54.1111 55.1557 54.2325 54.9691 54.3205 54.7537C54.4085 54.5383 54.4525 54.3092 54.4525 54.065Z" fill="#F8FAFC"/>
<path d="M59.0063 55.8687C59.1474 55.8687 59.293 55.8489 59.4432 55.8095C59.5918 55.7701 59.7253 55.7063 59.8421 55.6184V54.4958C59.8421 54.3987 59.8907 54.3487 59.9893 54.3487H60.6416C60.6765 54.3487 60.7083 54.3578 60.7371 54.3775C60.766 54.3972 60.7811 54.4367 60.7811 54.4943V56.1584C60.7811 56.2221 60.7569 56.2752 60.7083 56.3192C60.4884 56.4709 60.2335 56.5983 59.9423 56.6999C59.651 56.8031 59.34 56.8532 59.0078 56.8532C58.621 56.8532 58.2569 56.7803 57.9156 56.6332C57.5728 56.4861 57.274 56.2858 57.0176 56.0325C56.7612 55.7792 56.5595 55.4803 56.4123 55.1375C56.2652 54.7947 56.1924 54.4306 56.1924 54.0453C56.1924 53.6585 56.2652 53.2959 56.4123 52.9561C56.5595 52.6163 56.7582 52.3205 57.01 52.0687C57.2618 51.8169 57.5591 51.6197 57.9005 51.4741C58.2433 51.33 58.6074 51.2587 58.9927 51.2587C59.3249 51.2587 59.6237 51.3057 59.8877 51.4013C60.1516 51.4968 60.4004 51.6318 60.6355 51.8078C60.6749 51.8366 60.6962 51.8685 60.7022 51.9034C60.7068 51.9383 60.6977 51.9701 60.6734 51.9989L60.2411 52.6224C60.2168 52.6467 60.1865 52.6634 60.1531 52.674C60.1182 52.6831 60.0803 52.674 60.0363 52.6452C59.8937 52.5375 59.739 52.451 59.5706 52.3842C59.4022 52.3175 59.2156 52.2856 59.0093 52.2856C58.7545 52.2856 58.5194 52.3311 58.3024 52.4206C58.084 52.5117 57.8959 52.6361 57.7381 52.7953C57.5804 52.9546 57.4545 53.1397 57.365 53.352C57.2755 53.5644 57.23 53.795 57.23 54.0453C57.23 54.2941 57.277 54.5307 57.3695 54.7522C57.4621 54.9752 57.588 55.1693 57.7472 55.3347C57.9065 55.5 58.0946 55.632 58.3116 55.7276C58.5224 55.8277 58.756 55.8732 59.0063 55.8687Z" fill="#F8FAFC"/>
<path d="M61.7837 56.6378V51.4984C61.7837 51.3953 61.8322 51.3452 61.9308 51.3452H62.7227C62.8152 51.3452 62.8622 51.3968 62.8622 51.4984V56.6378C62.8622 56.7349 62.8152 56.785 62.7227 56.785H61.9308C61.8338 56.785 61.7837 56.7364 61.7837 56.6378Z" fill="#F8FAFC"/>
<path d="M64.0498 56.6378V51.4908C64.0498 51.3937 64.0968 51.3436 64.1894 51.3436H67.7754C67.8725 51.3436 67.9226 51.3922 67.9226 51.4908V52.2022C67.9226 52.2993 67.874 52.3494 67.7754 52.3494H65.1208V53.4567H67.1444C67.2521 53.4567 67.3052 53.5053 67.3052 53.6039V54.3001C67.3052 54.3972 67.2521 54.4473 67.1444 54.4473H65.1208V55.7898H67.8406C67.9438 55.7898 67.9939 55.8383 67.9939 55.9369V56.6408C67.9939 56.7379 67.9423 56.7879 67.8406 56.7879H64.1894C64.0968 56.7849 64.0498 56.7364 64.0498 56.6378Z" fill="#F8FAFC"/>
<path d="M68.6404 55.9567C68.601 55.9127 68.5721 55.8687 68.5524 55.8247C68.5327 55.7807 68.5494 55.7321 68.604 55.6775L69.0955 55.1936C69.1395 55.1542 69.1819 55.1405 69.2244 55.1527C69.2654 55.1648 69.3094 55.1906 69.3534 55.23C69.4262 55.3029 69.5081 55.3787 69.5991 55.4545C69.6901 55.5304 69.7872 55.5987 69.8919 55.6593C69.9965 55.72 70.1103 55.7701 70.2332 55.8065C70.3545 55.8429 70.485 55.8611 70.6215 55.8611C70.7687 55.8611 70.8976 55.8414 71.0099 55.8019C71.1221 55.7625 71.2192 55.7109 71.2996 55.6442C71.38 55.5774 71.4422 55.5016 71.4831 55.4166C71.5241 55.3317 71.5453 55.2422 71.5453 55.1496C71.5453 55.0328 71.5105 54.9327 71.4392 54.8523C71.3679 54.7719 71.2814 54.7037 71.1782 54.6475C71.0751 54.5914 70.9644 54.5444 70.8445 54.508C70.7247 54.4716 70.6155 54.4412 70.5184 54.417C69.9268 54.241 69.4762 54.0241 69.1653 53.7677C68.8543 53.5113 68.6996 53.1746 68.6996 52.7589C68.6996 52.5344 68.7466 52.3281 68.8422 52.1431C68.9377 51.958 69.0712 51.7972 69.2457 51.6622C69.4186 51.5272 69.6279 51.424 69.8722 51.3512C70.1164 51.2784 70.3849 51.2405 70.6792 51.2405C71.0023 51.2405 71.3117 51.3163 71.6075 51.468C71.9033 51.6197 72.1612 51.8048 72.3812 52.0247C72.4692 52.1173 72.4661 52.2128 72.3736 52.3114L71.9701 52.7438C71.9215 52.7878 71.8745 52.8014 71.8305 52.7847C71.7865 52.768 71.7395 52.7392 71.691 52.6998C71.6318 52.6512 71.5651 52.5966 71.4892 52.539C71.4134 52.4798 71.3299 52.4252 71.2404 52.3736C71.1509 52.3221 71.0554 52.2796 70.9537 52.2447C70.8536 52.2098 70.7489 52.1931 70.6428 52.1931C70.5502 52.1931 70.4531 52.2007 70.353 52.2159C70.2529 52.231 70.1619 52.2583 70.0815 52.2993C70.0011 52.3403 69.9328 52.3994 69.8797 52.4753C69.8251 52.5511 69.7993 52.6528 69.7993 52.7802C69.7993 52.8727 69.8251 52.9531 69.8767 53.0214C69.9283 53.0896 70.0011 53.1503 70.0967 53.2004C70.1922 53.2519 70.3045 53.299 70.4334 53.343C70.5624 53.387 70.7065 53.4309 70.8627 53.4749C71.1115 53.5477 71.3466 53.6297 71.5666 53.7207C71.7865 53.8117 71.9777 53.9224 72.143 54.0544C72.3068 54.1864 72.4373 54.3426 72.5359 54.5231C72.633 54.7037 72.6831 54.9221 72.6831 55.1754C72.6831 55.4288 72.6269 55.6609 72.5147 55.8687C72.4024 56.0765 72.2522 56.254 72.0641 56.3996C71.876 56.5467 71.6591 56.659 71.4119 56.7364C71.1646 56.8152 70.9097 56.8532 70.6458 56.8532C70.265 56.8532 69.8979 56.7697 69.546 56.6044C69.1911 56.4421 68.8892 56.2252 68.6404 55.9567Z" fill="#F8FAFC"/>
<path d="M16.3695 63.0393C16.3695 63.1668 16.3528 63.2912 16.3194 63.408C16.286 63.5263 16.239 63.6355 16.1783 63.7371C16.1177 63.8388 16.0464 63.9313 15.9614 64.0132C15.8765 64.0966 15.7824 64.1664 15.6793 64.2256C15.5761 64.2832 15.4638 64.3287 15.3455 64.3606C15.2272 64.3925 15.1028 64.4091 14.9724 64.4091H14.0849C14.0622 64.4091 14.0425 64.4046 14.0258 64.394C14.0091 64.3833 14 64.3636 14 64.3318V61.753C14 61.6953 14.0288 61.6665 14.0849 61.6665H14.9724C15.168 61.6665 15.3516 61.7014 15.52 61.7727C15.6899 61.844 15.837 61.9411 15.9629 62.0655C16.0888 62.1898 16.1874 62.334 16.2602 62.5008C16.3331 62.6662 16.3695 62.8467 16.3695 63.0393ZM14.534 62.1716V63.9025H14.7099C14.8025 63.9025 14.895 63.901 14.9875 63.8964C15.1089 63.8934 15.2227 63.8676 15.3258 63.8221C15.429 63.7751 15.5185 63.7144 15.5943 63.6355C15.6702 63.5581 15.7293 63.4671 15.7718 63.3624C15.8143 63.2578 15.8355 63.1455 15.8355 63.0272C15.8355 62.8998 15.8127 62.7845 15.7657 62.6783C15.7187 62.5721 15.6565 62.4826 15.5761 62.4068C15.4957 62.3309 15.4017 62.2733 15.2955 62.2323C15.1878 62.1914 15.074 62.1701 14.9542 62.1701H14.534V62.1716Z" fill="#F8FAFC"/>
<path d="M16.8716 61.7529C16.8716 61.6937 16.8989 61.6649 16.9535 61.6649H18.7344C18.7662 61.6649 18.789 61.674 18.8026 61.6922C18.8163 61.7104 18.8224 61.7332 18.8224 61.7605V62.0866C18.8224 62.1094 18.8148 62.1291 18.7996 62.1458C18.7844 62.1625 18.7617 62.1716 18.7298 62.1716H17.4162V62.7313H18.4295C18.4538 62.7283 18.4735 62.7344 18.4886 62.7465C18.5038 62.7601 18.5114 62.7814 18.5114 62.8117V63.1455C18.5114 63.1667 18.5053 63.1879 18.4932 63.2046C18.4811 63.2213 18.4613 63.2304 18.434 63.2304H17.4177V63.9009H18.7799C18.8148 63.9009 18.8375 63.9085 18.8482 63.9236C18.8588 63.9388 18.8648 63.9616 18.8648 63.9919V64.3287C18.8648 64.3802 18.8375 64.406 18.7829 64.406H16.9535C16.9307 64.406 16.9125 64.4 16.8959 64.3878C16.8792 64.3757 16.8716 64.356 16.8716 64.3287V61.7529Z" fill="#F8FAFC"/>
<path d="M21.2781 64.3545C21.2644 64.3287 21.2523 64.3029 21.2417 64.2756C21.2311 64.2498 21.2189 64.2225 21.2083 64.1937L20.239 61.7635C20.239 61.7605 20.2375 61.7544 20.2359 61.7484C20.2344 61.7408 20.2329 61.7332 20.2329 61.7241C20.2329 61.6846 20.2587 61.6649 20.3088 61.6649H20.7047C20.7517 61.6649 20.7836 61.6877 20.8002 61.7347C20.8276 61.8121 20.8594 61.9031 20.8988 62.0077C20.9383 62.1124 20.9792 62.2216 21.0232 62.3384C21.0672 62.4552 21.1112 62.5736 21.1582 62.6964C21.2053 62.8178 21.2493 62.9361 21.2933 63.0514C21.3372 63.1667 21.3782 63.2729 21.4146 63.3745C21.4525 63.4746 21.4844 63.5611 21.5102 63.6324C21.5375 63.5611 21.5693 63.4746 21.6057 63.3745C21.6421 63.2744 21.6831 63.1667 21.7256 63.0514C21.7681 62.9361 21.812 62.8193 21.8576 62.6964C21.9031 62.5751 21.9471 62.4552 21.991 62.3384C22.035 62.2216 22.076 62.1124 22.1139 62.0077C22.1518 61.9031 22.1867 61.8136 22.214 61.7347C22.2307 61.6877 22.2641 61.6649 22.3142 61.6649H22.7025C22.7571 61.6649 22.7859 61.6846 22.7859 61.7256C22.7859 61.7347 22.7844 61.7423 22.7829 61.7499C22.7814 61.7575 22.7799 61.762 22.7799 61.765L21.812 64.1952C21.8014 64.2195 21.7923 64.2452 21.7832 64.2695C21.7726 64.2953 21.762 64.3196 21.7499 64.3423C21.7332 64.3742 21.7104 64.3939 21.6816 64.4C21.6528 64.406 21.6194 64.4091 21.58 64.4091H21.3676C21.3388 64.4091 21.319 64.403 21.3069 64.3924C21.2933 64.3818 21.2842 64.3681 21.2781 64.3545Z" fill="#F8FAFC"/>
<path d="M23.1534 61.7454C23.1534 61.7241 23.161 61.7044 23.1731 61.6877C23.1867 61.671 23.2065 61.6635 23.2338 61.6635H23.5994C23.6206 61.6635 23.6403 61.671 23.6585 61.6862C23.6767 61.7014 23.6858 61.7211 23.6858 61.7454V64.3272C23.6858 64.3818 23.657 64.4091 23.5994 64.4091H23.2338C23.1792 64.4091 23.1519 64.3818 23.1519 64.3272V61.7454H23.1534Z" fill="#F8FAFC"/>
<path d="M24.2896 61.7484C24.2896 61.7256 24.2972 61.7044 24.3108 61.6892C24.3245 61.6725 24.3457 61.6649 24.3715 61.6649H24.7963C24.8129 61.6649 24.8296 61.6695 24.8448 61.6771C24.86 61.6846 24.8736 61.6983 24.8858 61.715C25.0966 62.0153 25.306 62.3142 25.5123 62.61C25.7186 62.9058 25.9279 63.2046 26.1388 63.505V61.7347C26.1418 61.7119 26.1524 61.6953 26.1661 61.6831C26.1812 61.671 26.1979 61.6649 26.2192 61.6649H26.5756C26.5999 61.6649 26.6211 61.6725 26.6393 61.6877C26.6575 61.7028 26.6667 61.7226 26.6667 61.7468V64.3332C26.6667 64.3833 26.6378 64.4091 26.5802 64.4091H26.1797C26.1524 64.4091 26.1281 64.3924 26.1039 64.359C25.8869 64.045 25.6715 63.731 25.4561 63.417C25.2407 63.103 25.0253 62.789 24.8099 62.4734V64.3272C24.8099 64.3545 24.8038 64.3742 24.7902 64.3878C24.7765 64.4015 24.7553 64.4076 24.725 64.4076H24.37C24.3412 64.4076 24.3215 64.4 24.3078 64.3863C24.2942 64.3727 24.2881 64.3529 24.2881 64.3287V61.7484H24.2896Z" fill="#F8FAFC"/>
<path d="M29.3285 61.8651C29.3436 61.8742 29.3558 61.8834 29.3649 61.897C29.374 61.9107 29.38 61.9243 29.38 61.941C29.38 61.9546 29.377 61.9683 29.3694 61.9835L29.1904 62.2884C29.1692 62.3172 29.148 62.3309 29.1237 62.3309C29.1161 62.3309 29.107 62.3293 29.0979 62.3263C29.0873 62.3233 29.0782 62.3187 29.0691 62.3126C28.9917 62.2565 28.9083 62.214 28.8188 62.1837C28.7308 62.1534 28.6352 62.1382 28.5366 62.1382C28.4107 62.1382 28.2954 62.1625 28.1908 62.2095C28.0861 62.2565 27.9951 62.3217 27.9192 62.4021C27.8434 62.4841 27.7842 62.5796 27.7402 62.6888C27.6978 62.7981 27.6765 62.9164 27.6765 63.0423C27.6765 63.1667 27.6978 63.2835 27.7402 63.3927C27.7827 63.5019 27.8419 63.596 27.9192 63.6779C27.9951 63.7598 28.0861 63.8235 28.1908 63.8705C28.2954 63.9176 28.4107 63.9403 28.5366 63.9403C28.6367 63.9403 28.7323 63.9252 28.8218 63.8948C28.9128 63.8645 28.9963 63.8205 29.0721 63.7659C29.0827 63.7583 29.0918 63.7537 29.1024 63.7507C29.1131 63.7477 29.1222 63.7462 29.1298 63.7446C29.151 63.7446 29.1722 63.7583 29.195 63.7856L29.3785 64.0935C29.3861 64.1087 29.3891 64.1224 29.3891 64.1345C29.3891 64.1512 29.3831 64.1663 29.374 64.177C29.3634 64.1876 29.3512 64.1982 29.3376 64.2088C29.2223 64.2862 29.0964 64.3469 28.9629 64.3893C28.8294 64.4318 28.6883 64.4531 28.5412 64.4531C28.4107 64.4531 28.2848 64.4364 28.165 64.403C28.0451 64.3696 27.9329 64.3226 27.8282 64.2604C27.7235 64.1982 27.628 64.1254 27.543 64.0389C27.4566 63.9525 27.3838 63.8584 27.3216 63.7537C27.2594 63.6491 27.2123 63.5368 27.179 63.417C27.1456 63.2971 27.1289 63.1712 27.1289 63.0408C27.1289 62.9103 27.1456 62.7844 27.179 62.6646C27.2123 62.5447 27.2594 62.4325 27.3216 62.3263C27.3822 62.2201 27.4566 62.1245 27.543 62.0381C27.628 61.9516 27.7235 61.8788 27.8282 61.8166C27.9329 61.7559 28.0451 61.7089 28.165 61.674C28.2848 61.6406 28.4107 61.6224 28.5412 61.6224C28.6883 61.6224 28.8264 61.6437 28.9583 61.6846C29.0888 61.7271 29.2132 61.7863 29.3285 61.8651Z" fill="#F8FAFC"/>
<path d="M29.8838 61.7454C29.8838 61.7241 29.8914 61.7044 29.9036 61.6877C29.9172 61.671 29.9369 61.6635 29.9642 61.6635H30.3298C30.3511 61.6635 30.3708 61.671 30.389 61.6862C30.4072 61.7014 30.4163 61.7211 30.4163 61.7454V64.3272C30.4163 64.3818 30.3875 64.4091 30.3298 64.4091H29.9642C29.9096 64.4091 29.8823 64.3818 29.8823 64.3272V61.7454H29.8838Z" fill="#F8FAFC"/>
<path d="M34.0887 61.7454C34.0887 61.7241 34.0963 61.7044 34.1115 61.6877C34.1266 61.671 34.1463 61.6635 34.1706 61.6635H34.3572C34.38 61.6635 34.3997 61.671 34.4179 61.6862C34.4361 61.7014 34.4452 61.7211 34.4452 61.7454V64.3272C34.4452 64.3818 34.4164 64.4091 34.3572 64.4091H34.1706C34.116 64.4091 34.0887 64.3818 34.0887 64.3272V63.141H32.5308V64.3272C32.5308 64.3818 32.502 64.4091 32.4428 64.4091H32.2562C32.2016 64.4091 32.1743 64.3818 32.1743 64.3272V61.7454C32.1743 61.7241 32.1819 61.7044 32.1971 61.6877C32.2122 61.671 32.232 61.6635 32.2562 61.6635H32.4459C32.4686 61.6635 32.4883 61.671 32.505 61.6877C32.5217 61.7044 32.5308 61.7226 32.5308 61.7454V62.7814H34.0887V61.7454Z" fill="#F8FAFC"/>
<path d="M35.0322 61.7454C35.0322 61.7241 35.0398 61.7044 35.0535 61.6877C35.0671 61.671 35.0884 61.6635 35.1141 61.6635H35.3053C35.328 61.6635 35.3478 61.671 35.3644 61.6862C35.3811 61.7014 35.3902 61.7211 35.3902 61.7454V64.3272C35.3902 64.3818 35.3614 64.4091 35.3053 64.4091H35.1141C35.0595 64.4091 35.0322 64.3818 35.0322 64.3272V61.7454Z" fill="#F8FAFC"/>
<path d="M37.8357 63.2775C37.8357 63.2229 37.863 63.1956 37.9176 63.1956H38.1073C38.13 63.1956 38.1497 63.2031 38.1664 63.2168C38.1831 63.2304 38.1922 63.2517 38.1922 63.2775V64.1027C38.1922 64.1179 38.1892 64.1315 38.1831 64.1436C38.177 64.1573 38.1664 64.1679 38.1513 64.1755L38.1361 64.1861C38.0208 64.2695 37.8934 64.3348 37.7538 64.3788C37.6143 64.4243 37.4641 64.4455 37.3033 64.4455C37.1728 64.4455 37.0469 64.4288 36.9271 64.3955C36.8072 64.3621 36.695 64.3151 36.5903 64.2529C36.4856 64.1907 36.3916 64.1179 36.3051 64.0314C36.2187 63.9449 36.1459 63.8509 36.0852 63.7462C36.0245 63.6415 35.9775 63.5293 35.9441 63.4094C35.9107 63.2896 35.894 63.1637 35.894 63.0332C35.894 62.9043 35.9107 62.7799 35.9441 62.6601C35.9775 62.5402 36.0245 62.428 36.0867 62.3233C36.1489 62.2186 36.2217 62.1231 36.3082 62.0366C36.3946 61.9501 36.4887 61.8758 36.5934 61.8151C36.698 61.7545 36.8103 61.7059 36.9301 61.6725C37.05 61.6392 37.1759 61.621 37.3063 61.621C37.458 61.621 37.6036 61.6437 37.7447 61.6907C37.8858 61.7363 38.0162 61.803 38.1391 61.8895C38.1528 61.9001 38.1634 61.9107 38.1725 61.9244C38.1816 61.938 38.1861 61.9501 38.1861 61.9638C38.1861 61.9805 38.1816 61.9957 38.171 62.0078L38.0724 62.1701C38.0511 62.1989 38.0299 62.2141 38.0071 62.2141C37.998 62.2141 37.9889 62.2111 37.9783 62.208C37.9677 62.2035 37.9556 62.1959 37.9419 62.1868C37.8539 62.1246 37.7568 62.0745 37.6522 62.0381C37.5475 62.0017 37.4368 61.9835 37.3185 61.9835C37.1652 61.9835 37.0242 62.0123 36.8937 62.07C36.7633 62.1276 36.651 62.205 36.5554 62.3021C36.4599 62.3992 36.3855 62.5114 36.3309 62.6388C36.2763 62.7663 36.249 62.8982 36.249 63.0363C36.249 63.1834 36.2763 63.3199 36.3324 63.4474C36.3886 63.5748 36.4629 63.6855 36.5585 63.7796C36.6525 63.8736 36.7632 63.948 36.8907 64.0026C37.0166 64.0572 37.1516 64.0845 37.2942 64.0845C37.3837 64.0845 37.4732 64.0693 37.5627 64.0405C37.6522 64.0117 37.7432 63.9768 37.8357 63.9373V63.2775Z" fill="#F8FAFC"/>
<path d="M40.6253 61.7454C40.6253 61.7241 40.6329 61.7044 40.6481 61.6877C40.6632 61.671 40.683 61.6635 40.7072 61.6635H40.8938C40.9166 61.6635 40.9363 61.671 40.9545 61.6862C40.9727 61.7014 40.9818 61.7211 40.9818 61.7454V64.3272C40.9818 64.3818 40.953 64.4091 40.8938 64.4091H40.7072C40.6526 64.4091 40.6253 64.3818 40.6253 64.3272V63.141H39.0674V64.3272C39.0674 64.3818 39.0386 64.4091 38.9794 64.4091H38.7929C38.7382 64.4091 38.7109 64.3818 38.7109 64.3272V61.7454C38.7109 61.7241 38.7185 61.7044 38.7337 61.6877C38.7489 61.671 38.7686 61.6635 38.7929 61.6635H38.9825C39.0052 61.6635 39.0249 61.671 39.0416 61.6877C39.0583 61.7044 39.0674 61.7226 39.0674 61.7454V62.7814H40.6253V61.7454Z" fill="#F8FAFC"/>
<path d="M43.424 61.665C43.4801 61.665 43.5089 61.6938 43.5089 61.753V61.9365C43.5089 61.9593 43.5013 61.9805 43.4877 61.9972C43.4725 62.0139 43.4513 62.023 43.4194 62.023H41.9298V62.783H43.1009C43.1221 62.783 43.1418 62.789 43.1585 62.8027C43.1752 62.8163 43.1828 62.8376 43.1828 62.8679V63.056C43.1828 63.0772 43.1752 63.0985 43.163 63.1152C43.1494 63.1318 43.1297 63.141 43.1024 63.141H41.9313V64.0496H43.4285C43.4846 64.0496 43.5135 64.0784 43.5135 64.1361V64.3257C43.5135 64.3803 43.4862 64.4076 43.4315 64.4076H41.6537C41.5991 64.4076 41.5718 64.3818 41.5718 64.3302V61.7484C41.5718 61.6923 41.5991 61.6635 41.6537 61.6635H43.424V61.665Z" fill="#F8FAFC"/>
<path d="M43.9458 61.7529C43.9458 61.6937 43.9731 61.6649 44.0277 61.6649H45.0941C45.217 61.6649 45.3323 61.6877 45.4385 61.7347C45.5447 61.7802 45.6372 61.8439 45.7161 61.9228C45.795 62.0017 45.8571 62.0957 45.9027 62.2019C45.9482 62.3081 45.9694 62.4219 45.9694 62.5432C45.9694 62.6297 45.9573 62.7116 45.933 62.792C45.9087 62.8709 45.8754 62.9452 45.8329 63.0135C45.7904 63.0817 45.7388 63.1424 45.6781 63.1955C45.6175 63.2486 45.5507 63.2941 45.4764 63.329L45.9649 64.3287V64.3529C45.9649 64.3909 45.9421 64.4106 45.8966 64.4106H45.6736C45.6357 64.4106 45.6053 64.3878 45.5856 64.3423L45.1427 63.4109C45.132 63.4124 45.1229 63.4124 45.1108 63.4124C45.0987 63.4124 45.082 63.4124 45.0608 63.414C45.0395 63.414 45.0107 63.4155 44.9743 63.4155C44.9379 63.4155 44.8909 63.4155 44.8332 63.4155C44.7756 63.4155 44.7028 63.4155 44.6178 63.4155C44.5329 63.4155 44.4297 63.4155 44.3099 63.4155V64.3302C44.3099 64.3848 44.281 64.4121 44.2249 64.4121H44.0323C43.9777 64.4121 43.9504 64.3848 43.9504 64.3302V61.7529H43.9458ZM45.6129 62.5387C45.6129 62.4704 45.5993 62.4052 45.5735 62.343C45.5477 62.2808 45.5113 62.2247 45.4643 62.1761C45.4172 62.1276 45.3626 62.0897 45.3004 62.0608C45.2367 62.032 45.1685 62.0168 45.0941 62.0168H44.3053V63.059H45.1017C45.1745 63.059 45.2428 63.0453 45.305 63.0165C45.3672 62.9877 45.4218 62.9498 45.4673 62.9012C45.5128 62.8527 45.5492 62.7981 45.575 62.7344C45.6008 62.6707 45.6129 62.6085 45.6129 62.5387Z" fill="#F8FAFC"/>
<path d="M49.4982 61.665C49.5543 61.665 49.5831 61.6938 49.5831 61.753V61.9365C49.5831 61.9593 49.5755 61.9805 49.5619 61.9972C49.5467 62.0139 49.5255 62.023 49.4936 62.023H48.004V62.783H49.1751C49.1963 62.783 49.216 62.789 49.2327 62.8027C49.2494 62.8163 49.257 62.8376 49.257 62.8679V63.056C49.257 63.0772 49.2494 63.0985 49.2373 63.1152C49.2236 63.1318 49.2039 63.141 49.1766 63.141H48.0055V64.0496H49.5027C49.5589 64.0496 49.5877 64.0784 49.5877 64.1361V64.3257C49.5877 64.3803 49.5604 64.4076 49.5058 64.4076H47.7279C47.6733 64.4076 47.646 64.3818 47.646 64.3302V61.7484C47.646 61.6923 47.6733 61.6635 47.7279 61.6635H49.4982V61.665Z" fill="#F8FAFC"/>
<path d="M50.0181 61.7529C50.0181 61.6937 50.0469 61.6649 50.103 61.6649H50.9662C51.0981 61.6649 51.224 61.6816 51.3424 61.7135C51.4622 61.7453 51.5729 61.7908 51.6746 61.85C51.7762 61.9091 51.8687 61.9804 51.9522 62.0639C52.0341 62.1473 52.1054 62.2398 52.163 62.3415C52.2222 62.4431 52.2662 62.5523 52.2995 62.6707C52.3314 62.789 52.3481 62.9103 52.3481 63.0393C52.3481 63.1667 52.3314 63.288 52.2995 63.4048C52.2662 63.5217 52.2207 63.6294 52.1615 63.7325C52.1023 63.8357 52.0295 63.9267 51.9461 64.0101C51.8627 64.0935 51.7701 64.1648 51.667 64.224C51.5653 64.2832 51.4546 64.3287 51.3363 64.362C51.218 64.3954 51.0951 64.4106 50.9662 64.4106H50.103C50.0803 64.4106 50.0605 64.406 50.0439 64.3954C50.0272 64.3848 50.0181 64.3636 50.0181 64.3332V61.7529ZM50.9571 64.0556C51.1072 64.0556 51.2468 64.0283 51.3727 63.9722C51.5001 63.9176 51.6093 63.8417 51.7004 63.7477C51.7914 63.6536 51.8642 63.5429 51.9158 63.4185C51.9673 63.2926 51.9931 63.1606 51.9931 63.0195C51.9931 62.8694 51.9658 62.7328 51.9112 62.61C51.8566 62.4871 51.7838 62.3809 51.6897 62.2944C51.5972 62.2065 51.488 62.1397 51.3636 62.0912C51.2392 62.0426 51.1057 62.0199 50.9646 62.0199H50.3715V64.0571H50.9571V64.0556Z" fill="#F8FAFC"/>
<path d="M53.196 63.2745C53.196 63.3913 53.2127 63.5005 53.2461 63.6021C53.2795 63.7038 53.3295 63.7917 53.3963 63.8661C53.4615 63.9404 53.5419 63.9996 53.6375 64.042C53.7315 64.0845 53.8407 64.1057 53.9621 64.1057C54.0926 64.1057 54.2063 64.0845 54.3034 64.0405C54.4005 63.998 54.4809 63.9389 54.5446 63.8646C54.6083 63.7902 54.6553 63.7022 54.6872 63.6021C54.7191 63.5005 54.7342 63.3928 54.7342 63.2775V61.7484C54.7342 61.7272 54.7433 61.7075 54.7585 61.6908C54.7752 61.6741 54.7964 61.6665 54.8207 61.6665H54.9982C55.0209 61.6665 55.0437 61.6741 55.0634 61.6893C55.0831 61.7044 55.0922 61.7241 55.0922 61.7484V63.326C55.0922 63.4929 55.0634 63.6446 55.0042 63.7842C54.9451 63.9222 54.8647 64.042 54.7615 64.1406C54.6584 64.2392 54.5385 64.3166 54.4005 64.3727C54.264 64.4273 54.1168 64.4562 53.9621 64.4562C53.8074 64.4562 53.6617 64.4273 53.5237 64.3682C53.3872 64.309 53.2673 64.2286 53.1642 64.1255C53.061 64.0223 52.9806 63.9025 52.9215 63.766C52.8623 63.6294 52.8335 63.4838 52.8335 63.3276V61.7499C52.8335 61.7317 52.8411 61.7135 52.8547 61.6953C52.8684 61.6771 52.8881 61.668 52.9109 61.668H53.1081C53.1263 61.668 53.146 61.6756 53.1657 61.6923C53.1854 61.709 53.196 61.7272 53.196 61.7499V63.2745Z" fill="#F8FAFC"/>
<path d="M57.7851 61.8956C57.7988 61.9062 57.8094 61.9168 57.8185 61.9304C57.8276 61.9441 57.8321 61.9562 57.8321 61.9699C57.8321 61.9866 57.8276 62.0017 57.817 62.0139L57.7184 62.1762C57.6971 62.205 57.6759 62.2202 57.6531 62.2202C57.644 62.2202 57.6349 62.2171 57.6243 62.2141C57.6137 62.2096 57.6016 62.202 57.5879 62.1929C57.4999 62.1307 57.4059 62.0821 57.3073 62.0488C57.2102 62.0154 57.107 61.9957 56.9978 61.9896C56.8385 61.9896 56.6929 62.0184 56.5579 62.0761C56.4244 62.1337 56.3076 62.2111 56.209 62.3066C56.1104 62.4037 56.0346 62.516 55.9784 62.6434C55.9238 62.7708 55.895 62.9058 55.895 63.0469C55.895 63.1971 55.9238 63.3367 55.98 63.4641C56.0361 63.5915 56.1119 63.7022 56.2075 63.7932C56.3031 63.8858 56.4138 63.9571 56.5397 64.0102C56.6656 64.0618 56.7991 64.0875 56.9371 64.0875C56.9872 64.0875 57.0388 64.0845 57.0888 64.0769C57.1389 64.0693 57.1905 64.0572 57.2436 64.039C57.2951 64.0208 57.3498 63.998 57.4074 63.9707C57.4635 63.9434 57.5242 63.9085 57.5894 63.8676C57.6122 63.8539 57.6319 63.8479 57.6471 63.8479C57.6698 63.8479 57.6895 63.863 57.7078 63.8949L57.8124 64.0678C57.8215 64.0845 57.8261 64.0982 57.8261 64.1118C57.8261 64.1406 57.8109 64.1649 57.7821 64.1816C57.6653 64.265 57.5394 64.3318 57.3998 64.3788C57.2603 64.4258 57.1101 64.4501 56.9493 64.4501C56.8188 64.4501 56.6929 64.4334 56.5731 64.4C56.4532 64.3667 56.341 64.3196 56.2363 64.2574C56.1316 64.1952 56.0376 64.1224 55.9511 64.036C55.8647 63.9495 55.7919 63.8554 55.7312 63.7508C55.6705 63.6461 55.6235 63.5339 55.5901 63.414C55.5567 63.2942 55.54 63.1683 55.54 63.0378C55.54 62.9089 55.5567 62.783 55.5901 62.6631C55.6235 62.5433 55.6705 62.431 55.7327 62.3264C55.7949 62.2217 55.8677 62.1261 55.9542 62.0397C56.0406 61.9532 56.1347 61.8804 56.2394 61.8182C56.344 61.7575 56.4563 61.7105 56.5761 61.6756C56.696 61.6422 56.8219 61.624 56.9523 61.624C57.107 61.624 57.2527 61.6468 57.3907 61.6923C57.5303 61.7423 57.6607 61.8076 57.7851 61.8956Z" fill="#F8FAFC"/>
<path d="M58.5042 64.3408C58.4951 64.362 58.4829 64.3787 58.4678 64.3909C58.4511 64.403 58.4314 64.4091 58.4071 64.4091H58.2114C58.1553 64.4091 58.1265 64.3878 58.1265 64.3438C58.1265 64.3347 58.1265 64.3287 58.128 64.3226C58.128 64.3165 58.1295 64.312 58.131 64.3074C58.1325 64.3029 58.134 64.2983 58.1356 64.2938L59.202 61.7332C59.205 61.7271 59.208 61.7195 59.2111 61.7119C59.2156 61.7044 59.2202 61.6968 59.2262 61.6892C59.2323 61.6831 59.2414 61.6771 59.2536 61.6725C59.2657 61.668 59.2809 61.6649 59.3006 61.6649H59.4219C59.4401 61.6649 59.4553 61.668 59.4674 61.6725C59.4796 61.6771 59.4887 61.6831 59.4947 61.6892C59.5008 61.6968 59.5054 61.7028 59.5099 61.7119C59.5129 61.7195 59.516 61.7271 59.519 61.7332L60.5763 64.2938C60.5778 64.2998 60.5794 64.3059 60.5794 64.312C60.5809 64.3181 60.5824 64.3241 60.5824 64.3287C60.5839 64.3347 60.5839 64.3393 60.5839 64.3423C60.5839 64.3848 60.5551 64.4076 60.499 64.4076H60.3033C60.279 64.4076 60.2578 64.4015 60.2426 64.3893C60.2259 64.3772 60.2138 64.3605 60.2062 64.3393L60.0029 63.8311H58.7059C58.6635 63.9403 58.624 64.0405 58.5876 64.1284C58.5467 64.2179 58.5209 64.2892 58.5042 64.3408ZM58.8485 63.4731H59.8558L59.3567 62.2095L58.8485 63.4731Z" fill="#F8FAFC"/>
<path d="M62.421 61.665C62.4438 61.665 62.4635 61.6726 62.4817 61.6847C62.4999 61.6983 62.509 61.7181 62.512 61.7454V61.9319C62.512 61.9562 62.5044 61.9775 62.4908 61.9957C62.4756 62.0139 62.4529 62.023 62.4225 62.023H61.6534V64.3227C61.6534 64.3454 61.6459 64.3651 61.6322 64.3818C61.617 64.3985 61.5958 64.4076 61.57 64.4076H61.3834C61.3607 64.4076 61.341 64.4 61.3243 64.3833C61.3076 64.3666 61.2985 64.3469 61.2985 64.3227V62.023H60.5264C60.5021 62.023 60.4808 62.0154 60.4657 62.0002C60.449 61.985 60.4414 61.9623 60.4414 61.9319V61.7454C60.4414 61.7211 60.449 61.7014 60.4657 61.6862C60.4824 61.671 60.5021 61.6635 60.5264 61.6635H62.421V61.665Z" fill="#F8FAFC"/>
<path d="M62.9272 61.7454C62.9272 61.7241 62.9348 61.7044 62.9485 61.6877C62.9621 61.671 62.9834 61.6635 63.0092 61.6635H63.2003C63.223 61.6635 63.2428 61.671 63.2595 61.6862C63.2761 61.7014 63.2852 61.7211 63.2852 61.7454V64.3272C63.2852 64.3818 63.2564 64.4091 63.2003 64.4091H63.0092C62.9545 64.4091 62.9272 64.3818 62.9272 64.3272V61.7454Z" fill="#F8FAFC"/>
<path d="M65.2072 61.6271C65.3361 61.6271 65.462 61.6438 65.5819 61.6771C65.7017 61.7105 65.814 61.7575 65.9186 61.8197C66.0233 61.8819 66.1174 61.9547 66.2038 62.0412C66.2903 62.1277 66.3631 62.2232 66.4253 62.3279C66.486 62.4326 66.5345 62.5463 66.5679 62.6662C66.6013 62.7875 66.6195 62.9119 66.6195 63.0439C66.6195 63.1728 66.6028 63.2972 66.5694 63.4186C66.536 63.5384 66.489 63.6507 66.4268 63.7553C66.3646 63.86 66.2918 63.9541 66.2053 64.0405C66.1189 64.127 66.0248 64.1998 65.9202 64.2605C65.8155 64.3212 65.7032 64.3682 65.5819 64.4016C65.4605 64.4349 65.3346 64.4516 65.2042 64.4516C65.0737 64.4516 64.9478 64.4349 64.828 64.4016C64.7081 64.3682 64.5959 64.3212 64.4912 64.259C64.3865 64.1968 64.2925 64.124 64.206 64.0375C64.1211 63.951 64.0467 63.857 63.9861 63.7523C63.9254 63.6476 63.8784 63.5354 63.845 63.4156C63.8116 63.2957 63.7949 63.1698 63.7949 63.0393C63.7949 62.9104 63.8116 62.7845 63.845 62.6647C63.8784 62.5448 63.9254 62.4326 63.9876 62.3279C64.0498 62.2232 64.1226 62.1277 64.209 62.0412C64.294 61.9547 64.3896 61.8819 64.4942 61.8197C64.5989 61.7591 64.7112 61.712 64.831 61.6771C64.9508 61.6453 65.0752 61.6271 65.2072 61.6271ZM64.1499 63.0348C64.1499 63.1319 64.162 63.2259 64.1878 63.3154C64.2136 63.4049 64.2485 63.4884 64.294 63.5672C64.3395 63.6461 64.3941 63.7174 64.4578 63.7811C64.5215 63.8448 64.5928 63.8995 64.6717 63.945C64.7506 63.9905 64.834 64.0254 64.9235 64.0512C65.013 64.0769 65.1071 64.0891 65.2042 64.0891C65.2997 64.0891 65.3938 64.0769 65.4833 64.0512C65.5728 64.0254 65.6562 63.9905 65.7351 63.945C65.8125 63.8995 65.8838 63.8448 65.9475 63.7811C66.0112 63.7174 66.0658 63.6461 66.1113 63.5672C66.1568 63.4884 66.1917 63.4049 66.2175 63.3154C66.2433 63.2259 66.2554 63.1319 66.2554 63.0348C66.2554 62.8892 66.2281 62.7526 66.172 62.6252C66.1158 62.4978 66.0415 62.3871 65.9459 62.2915C65.8504 62.1959 65.7396 62.1216 65.6122 62.0655C65.4848 62.0109 65.3483 61.982 65.2026 61.982C65.1056 61.982 65.0115 61.9942 64.922 62.02C64.8325 62.0458 64.7491 62.0806 64.6702 62.1262C64.5913 62.1717 64.52 62.2263 64.4563 62.29C64.3926 62.3537 64.338 62.425 64.2925 62.5024C64.247 62.5797 64.2121 62.6632 64.1863 62.7542C64.162 62.8452 64.1499 62.9377 64.1499 63.0348Z" fill="#F8FAFC"/>
<path d="M69.1666 64.4091C69.1393 64.4091 69.1165 64.3954 69.0968 64.3681L67.4843 62.2065V64.3287C67.4843 64.3833 67.4555 64.4106 67.3994 64.4106H67.2128C67.1582 64.4106 67.1309 64.3833 67.1309 64.3287V61.7514C67.1309 61.7271 67.1384 61.7059 67.1536 61.6907C67.1688 61.6755 67.1885 61.6664 67.2128 61.6664H67.46C67.4919 61.6664 67.5177 61.6801 67.5374 61.7074L69.109 63.7947V61.7332C69.1165 61.6877 69.1438 61.6649 69.1909 61.6649H69.3775C69.4002 61.6649 69.4199 61.6725 69.4396 61.6877C69.4594 61.7028 69.4685 61.7226 69.4685 61.7468V64.3287C69.4685 64.3833 69.4381 64.4106 69.3775 64.4106H69.1666V64.4091Z" fill="#F8FAFC"/>
</svg>
