<svg width="114" height="50" viewBox="0 0 114 50" fill="none" xmlns="http://www.w3.org/2000/svg">
<path d="M53.9146 18.6462C52.652 18.6462 51.6484 17.7956 51.6484 16.4974V12.476H52.851V16.4544C52.851 17.1593 53.2656 17.5808 53.9146 17.5808C54.563 17.5808 54.9873 17.1593 54.9873 16.4544V12.476H56.1804V16.4974C56.1804 17.7956 55.1772 18.6462 53.9146 18.6462Z" fill="#094270"/>
<path d="M61.508 18.5948L59.069 14.8395V18.5948H57.8662V12.4758H58.9393L61.3775 16.2224V12.4758H62.5801V18.5948H61.508Z" fill="#094270"/>
<path d="M64.5347 12.4762H65.7372V18.5948H64.5347V12.4762Z" fill="#094270"/>
<path d="M69.759 18.5948H68.8595L66.8271 12.4758H68.0721L69.3095 16.4634L70.5465 12.4758H71.8004L69.759 18.5948Z" fill="#094270"/>
<path d="M72.8037 18.5948V12.4758H76.8593V13.5416H74.0057V14.9765H76.436V16.0425H74.0057V17.5292H76.8593V18.5948H72.8037Z" fill="#094270"/>
<path d="M80.7174 13.5416H79.5839V15.1573H80.7174C81.2446 15.1573 81.5911 14.8222 81.5911 14.3499C81.5911 13.8769 81.2446 13.5416 80.7174 13.5416ZM81.6507 18.5948L80.4485 16.154H79.5839V18.5948H78.3823V12.4758H80.7948C82.0483 12.4758 82.7931 13.3261 82.7931 14.3499C82.7931 15.2086 82.2653 15.741 81.668 15.9563L83.0439 18.5948H81.6507Z" fill="#094270"/>
<path d="M86.0783 18.6462C85.1446 18.6462 84.4354 18.4486 83.8306 17.8386L84.6087 17.0649C84.9983 17.4513 85.525 17.5808 86.0965 17.5808C86.8051 17.5808 87.1863 17.3138 87.1863 16.8242C87.1863 16.6095 87.1251 16.4292 86.9954 16.3089C86.8746 16.1968 86.7361 16.1367 86.4509 16.0943L85.7067 15.9912C85.1798 15.9133 84.7906 15.7502 84.5127 15.483C84.2196 15.1916 84.0721 14.7959 84.0721 14.2803C84.0721 13.1894 84.8858 12.4244 86.2165 12.4244C87.0649 12.4244 87.6787 12.6303 88.2055 13.1376L87.4458 13.8852C87.056 13.5157 86.5888 13.4637 86.1821 13.4637C85.5424 13.4637 85.2306 13.8159 85.2306 14.2374C85.2306 14.3917 85.2836 14.5552 85.4129 14.6753C85.5341 14.7874 85.7325 14.8824 85.9835 14.9166L86.7099 15.0199C87.2716 15.097 87.6272 15.2517 87.8862 15.4924C88.2152 15.8016 88.3617 16.2486 88.3617 16.7897C88.3617 17.976 87.3678 18.6462 86.0783 18.6462Z" fill="#094270"/>
<path d="M89.8413 12.4762H91.0435V18.5948H89.8413V12.4762Z" fill="#094270"/>
<path d="M95.1776 13.5416V18.5946H93.9764V13.5416H92.3672V12.476H96.7867V13.5416H95.1776Z" fill="#094270"/>
<path d="M100.09 10.7912H101.05V11.8661H100.09V10.7912ZM99.6579 14.2804L98.8798 16.5064H100.41L99.6579 14.2804ZM98.1786 10.7912H99.1388V11.8661H98.1786V10.7912ZM101.093 18.5948L100.731 17.5116H98.5429L98.1701 18.5948H96.916L99.1566 12.4758H100.098L102.347 18.5948H101.093Z" fill="#094270"/>
<path d="M105.288 13.5416V18.5946H104.086V13.5416H102.478V12.476H106.897V13.5416H105.288Z" fill="#094270"/>
<path d="M54.5544 24.2321C54.3464 23.9831 54.0702 23.8536 53.654 23.8536H52.7464V27.842H53.654C54.0702 27.842 54.3464 27.7122 54.5544 27.4633C54.7786 27.1881 54.8138 26.7495 54.8138 25.8222C54.8138 24.8942 54.7786 24.5079 54.5544 24.2321ZM55.3931 28.3231C54.9866 28.7264 54.4073 28.9077 53.7672 28.9077H51.5444V22.7886H53.7672C54.4073 22.7886 54.9866 22.9686 55.3931 23.3724C56.0847 24.0605 56.0154 24.9023 56.0154 25.8222C56.0154 26.7408 56.0847 27.6354 55.3931 28.3231Z" fill="#094270"/>
<path d="M57.521 28.9077V22.7886H61.5768V23.8538H58.7232V25.2892H61.1535V26.3549H58.7232V27.842H61.5768V28.9077H57.521Z" fill="#094270"/>
<path d="M64.795 28.9587C63.8607 28.9587 63.1512 28.7611 62.5459 28.1509L63.324 27.3773C63.7134 27.7634 64.2413 27.8928 64.8124 27.8928C65.5218 27.8928 65.9016 27.6262 65.9016 27.1364C65.9016 26.9224 65.8408 26.7416 65.7115 26.6214C65.59 26.5091 65.4516 26.4487 65.1663 26.4061L64.4232 26.3036C63.8948 26.226 63.5054 26.0627 63.2293 25.7959C62.9353 25.5036 62.7877 25.1082 62.7877 24.5933C62.7877 23.5017 63.6008 22.7373 64.933 22.7373C65.7808 22.7373 66.3954 22.943 66.9224 23.4509L66.1612 24.1975C65.7721 23.8284 65.3047 23.777 64.8986 23.777C64.2589 23.777 63.9471 24.1288 63.9471 24.5503C63.9471 24.7044 63.9987 24.8681 64.1294 24.989C64.2498 25.1 64.4488 25.1944 64.7002 25.2291L65.4254 25.3322C65.9879 25.4097 66.3429 25.5641 66.6021 25.8051C66.9309 26.1145 67.0771 26.561 67.0771 27.1028C67.0771 28.2883 66.083 28.9587 64.795 28.9587Z" fill="#094270"/>
<path d="M53.611 39.2705C52.6779 39.2705 51.9679 39.074 51.3623 38.4636L52.1408 37.6907C52.5302 38.0761 53.0579 38.2063 53.629 38.2063C54.3377 38.2063 54.7188 37.9391 54.7188 37.4499C54.7188 37.235 54.6576 37.0548 54.5275 36.9335C54.4073 36.8224 54.2682 36.7629 53.9831 36.7191L53.2394 36.6161C52.7122 36.5389 52.3233 36.3758 52.0459 36.1086C51.7515 35.8161 51.605 35.4209 51.605 34.9054C51.605 33.8148 52.4182 33.0494 53.7492 33.0494C54.5976 33.0494 55.2112 33.2563 55.7384 33.7626L54.9779 34.511C54.5885 34.1409 54.1218 34.0891 53.7152 34.0891C53.0747 34.0891 52.7637 34.4418 52.7637 34.863C52.7637 35.0176 52.8155 35.1814 52.9454 35.3013C53.066 35.4133 53.265 35.5079 53.516 35.5418L54.2426 35.6449C54.8049 35.7217 55.1589 35.8768 55.4189 36.118C55.7471 36.4272 55.8944 36.8728 55.8944 37.4145C55.8944 38.6009 54.9003 39.2705 53.611 39.2705Z" fill="#094270"/>
<path d="M59.4405 34.9054L58.6626 37.132H60.193L59.4405 34.9054ZM60.8763 39.2201L60.5134 38.1372H58.3248L57.9536 39.2201H56.6987L58.9393 33.101H59.8818L62.1299 39.2201H60.8763Z" fill="#094270"/>
<path d="M65.4777 34.9054L64.6996 37.132H66.23L65.4777 34.9054ZM66.9129 39.2201L66.5496 38.1372H64.3624L63.9898 39.2201H62.7354L64.9756 33.101H65.9194L68.1668 39.2201H66.9129Z" fill="#094270"/>
<path d="M71.6094 34.1669H70.4763V35.7824H71.6094C72.1366 35.7824 72.4829 35.4473 72.4829 34.9753C72.4829 34.5022 72.1366 34.1669 71.6094 34.1669ZM72.5439 39.2201L71.3417 36.7791H70.4763V39.2201H69.2739V33.1009H71.6876C72.9418 33.1009 73.6851 33.9517 73.6851 34.9753C73.6851 35.8342 73.1575 36.3666 72.5613 36.5816L73.9359 39.2201H72.5439Z" fill="#094270"/>
<path d="M75.2764 39.2201V33.1009H76.4785V38.1549H79.2716V39.2201H75.2764Z" fill="#094270"/>
<path d="M82.6627 34.9054L81.8846 37.132H83.4153L82.6627 34.9054ZM84.0987 39.2201L83.7345 38.1372H81.5467L81.1749 39.2201H79.9214L82.1616 33.101H83.1035L85.3524 39.2201H84.0987Z" fill="#094270"/>
<path d="M90.1008 39.2201L87.6623 35.4644V39.2201H86.46V33.1009H87.5327L89.9711 36.8481V33.1009H91.1735V39.2201H90.1008Z" fill="#094270"/>
<path d="M96.1374 34.5442C95.9303 34.2958 95.6534 34.1669 95.2388 34.1669H94.3296V38.1545H95.2388C95.6534 38.1545 95.9303 38.0258 96.1374 37.776C96.3626 37.5015 96.3976 37.0627 96.3976 36.1349C96.3976 35.207 96.3626 34.8202 96.1374 34.5442ZM96.9771 38.6358C96.5697 39.0395 95.9903 39.2201 95.3504 39.2201H93.1274V33.1009H95.3504C95.9903 33.1009 96.5697 33.282 96.9771 33.6851C97.6681 34.3728 97.599 35.2152 97.599 36.1349C97.599 37.0549 97.6681 37.9482 96.9771 38.6358Z" fill="#094270"/>
<path d="M99.104 39.2201V33.1009H103.161V34.1669H100.306V35.6023H102.736V36.6683H100.306V38.1549H103.161V39.2201H99.104Z" fill="#094270"/>
<path d="M106.37 39.2705C105.436 39.2705 104.726 39.074 104.121 38.4636L104.9 37.6907C105.289 38.0761 105.816 38.2063 106.387 38.2063C107.095 38.2063 107.477 37.9391 107.477 37.4499C107.477 37.235 107.416 37.0548 107.286 36.9335C107.165 36.8224 107.027 36.7629 106.742 36.7191L105.998 36.6161C105.47 36.5389 105.081 36.3758 104.804 36.1086C104.51 35.8161 104.363 35.4209 104.363 34.9054C104.363 33.8148 105.176 33.0494 106.508 33.0494C107.355 33.0494 107.97 33.2563 108.498 33.7626L107.736 34.511C107.347 34.1409 106.88 34.0891 106.473 34.0891C105.833 34.0891 105.522 34.4418 105.522 34.863C105.522 35.0176 105.574 35.1814 105.704 35.3013C105.825 35.4133 106.024 35.5079 106.275 35.5418L107.001 35.6449C107.564 35.7217 107.918 35.8768 108.177 36.118C108.506 36.4272 108.652 36.8728 108.652 37.4145C108.652 38.6009 107.659 39.2705 106.37 39.2705Z" fill="#094270"/>
<path d="M39.2679 34.5187C39.2679 35.1937 38.7415 35.7448 38.095 35.7448C37.4499 35.7448 36.9245 35.1937 36.9245 34.5187V13.8896C36.9245 13.6391 37.1253 13.4349 37.3722 13.4349C37.6204 13.4349 37.8209 13.6391 37.8209 13.8896V30.0432C37.8209 30.1733 37.8904 30.2864 37.9889 30.3347C38.0214 30.3511 38.0574 30.3597 38.095 30.3597C38.2477 30.3597 38.3704 30.2167 38.3704 30.0432V14.2061C38.3704 13.9552 38.5715 13.751 38.8189 13.751H38.8193C39.0664 13.751 39.2679 13.9552 39.2679 14.2061V34.5187ZM35.313 32.7324C35.313 33.4085 34.7877 33.9577 34.1412 33.9577C33.4949 33.9577 32.9692 33.4085 32.9692 32.7324V17.8023C32.9692 17.5511 33.1697 17.3472 33.4185 17.3472C33.666 17.3472 33.8664 17.5511 33.8664 17.8023V30.3C33.8664 30.4733 33.9896 30.6155 34.1412 30.6155C34.2928 30.6155 34.4159 30.4733 34.4159 30.3V15.8576C34.4159 15.6074 34.6162 15.4035 34.8651 15.4035C35.1125 15.4035 35.313 15.6074 35.313 15.8576V32.7324ZM30.5863 11.4223C30.5863 13.3381 29.0547 14.892 27.1646 14.892C25.7482 14.892 24.5328 14.018 24.0137 12.7725C23.8406 12.3574 23.745 11.9011 23.745 11.4223C23.745 11.063 23.7988 10.7161 23.8988 10.3906C24.3317 8.978 25.6303 7.95193 27.1646 7.95193C29.0547 7.95193 30.5863 9.50601 30.5863 11.4223ZM23.3412 14.3907L24.511 15.265L23.3412 17.8891L22.1939 15.265L23.3412 14.3907ZM22.9587 11.4223C22.9587 13.3381 21.4285 14.892 19.5388 14.892C17.6503 14.892 16.1192 13.3381 16.1192 11.4223C16.1192 9.50601 17.6503 7.95193 19.5388 7.95193C20.4733 7.95193 21.3184 8.33272 21.9357 8.94844C21.9426 8.95535 21.9505 8.96149 21.9577 8.9684C22.5764 9.5966 22.9587 10.4641 22.9587 11.4223ZM16.1024 20.2487C16.1024 19.9976 16.3029 19.794 16.5501 19.794C16.6123 19.794 16.6715 19.8067 16.7251 19.8297C16.8857 19.899 16.9985 20.0604 16.9985 20.2487V23.1954C16.9985 23.3257 17.0683 23.4382 17.167 23.4864C17.1997 23.5025 17.2361 23.5112 17.274 23.5112C17.4256 23.5112 17.5483 23.3695 17.5483 23.1954V20.2487C17.5483 19.9976 17.7495 19.794 17.9968 19.794C18.0728 19.794 18.1432 19.8151 18.2062 19.8489C18.3479 19.9253 18.4454 20.0744 18.4454 20.2487V25.5771C18.4454 26.2535 17.9194 26.8028 17.274 26.8028C17.1125 26.8028 16.9581 26.7679 16.8182 26.7063C16.8099 26.7024 16.8026 26.6969 16.7942 26.6926C16.713 26.6541 16.6382 26.6053 16.5675 26.5493C16.2871 26.3243 16.1024 25.9744 16.1024 25.5771V20.2487ZM16.1024 28.682C16.1024 28.4321 16.3029 28.2279 16.5501 28.2279C16.6123 28.2279 16.6715 28.24 16.7251 28.2632C16.8857 28.3325 16.9985 28.4945 16.9985 28.682V31.6282C16.9985 31.8024 17.1226 31.9445 17.274 31.9445C17.2912 31.9445 17.3062 31.936 17.3228 31.9326C17.3422 31.9288 17.3627 31.9276 17.3809 31.9189C17.4793 31.8713 17.5483 31.7591 17.5483 31.6282V28.682C17.5483 28.4321 17.7495 28.2279 17.9968 28.2279C18.0928 28.2279 18.181 28.259 18.254 28.311C18.3695 28.393 18.4454 28.5285 18.4454 28.682V34.0103C18.4454 34.5174 18.1497 34.9532 17.7293 35.1392C17.5893 35.2022 17.4351 35.2362 17.274 35.2362C16.6277 35.2362 16.1024 34.6864 16.1024 34.0103V28.682ZM20.0566 21.4659C20.0566 21.2153 20.2571 21.0112 20.5058 21.0112C20.7535 21.0112 20.9537 21.2153 20.9537 21.4659V24.4119C20.9537 24.543 21.0232 24.6555 21.1221 24.7031C21.1546 24.7194 21.1906 24.7288 21.2285 24.7288C21.3801 24.7288 21.5032 24.5867 21.5032 24.4119V21.4659C21.5032 21.2153 21.7036 21.0112 21.9524 21.0112C22.2 21.0112 22.4 21.2153 22.4 21.4659V26.7942C22.4 27.4698 21.8749 28.0205 21.2285 28.0205C20.772 28.0205 20.3798 27.7429 20.1861 27.3425C20.1639 27.297 20.1447 27.25 20.128 27.2018C20.0847 27.073 20.0566 26.9381 20.0566 26.7942V21.4659ZM20.0566 29.8997C20.0566 29.648 20.2571 29.4438 20.5058 29.4438C20.5675 29.4438 20.6266 29.4567 20.6802 29.4799C20.8407 29.5489 20.9537 29.7112 20.9537 29.8997V32.8456C20.9537 33.0203 21.0776 33.1619 21.2285 33.1619C21.3801 33.1619 21.5032 33.0203 21.5032 32.8456V29.8997C21.5032 29.648 21.7036 29.4438 21.9524 29.4438C22.014 29.4438 22.0733 29.4567 22.1266 29.4799C22.2877 29.5489 22.4 29.7112 22.4 29.8997V35.2275C22.4 35.9036 21.8749 36.4534 21.2285 36.4534C20.5824 36.4534 20.0566 35.9036 20.0566 35.2275V29.8997ZM24.2187 21.4659C24.2187 21.2153 24.419 21.0112 24.667 21.0112C24.9155 21.0112 25.1158 21.2153 25.1158 21.4659V24.4119C25.1158 24.4994 25.1464 24.5785 25.1962 24.6355C25.2459 24.6933 25.3144 24.7288 25.3903 24.7288C25.5422 24.7288 25.6652 24.5867 25.6652 24.4119V21.4659C25.6652 21.3406 25.7155 21.227 25.7966 21.1448C25.8779 21.0623 25.9896 21.0112 26.114 21.0112C26.3608 21.0112 26.5621 21.2153 26.5621 21.4659V26.7942C26.5621 27.4698 26.036 28.0205 25.3903 28.0205C25.1834 28.0205 24.9918 27.959 24.823 27.8604C24.7887 27.8404 24.7541 27.8218 24.7216 27.7984C24.4183 27.5765 24.2187 27.2095 24.2187 26.7942V21.4659ZM24.2187 29.8997C24.2187 29.648 24.419 29.4438 24.667 29.4438C24.7287 29.4438 24.788 29.4567 24.8418 29.4799C25.003 29.5489 25.1158 29.7112 25.1158 29.8997V32.8456C25.1158 33.0203 25.2386 33.1619 25.3903 33.1619C25.4284 33.1619 25.4648 33.1533 25.4973 33.137C25.5962 33.0893 25.6652 32.9771 25.6652 32.8456V29.8997C25.6652 29.648 25.8655 29.4438 26.114 29.4438C26.2015 29.4438 26.2828 29.4707 26.3523 29.515C26.3753 29.5296 26.3964 29.5468 26.4167 29.5659C26.4212 29.5695 26.4264 29.5732 26.4305 29.5772C26.5118 29.6599 26.5621 29.7737 26.5621 29.8997V35.2275C26.5621 35.9036 26.036 36.4534 25.3903 36.4534C24.7438 36.4534 24.2187 35.9036 24.2187 35.2275V29.8997ZM28.1742 20.2487C28.1742 19.9976 28.3748 19.794 28.6221 19.794C28.6837 19.794 28.7429 19.8067 28.7965 19.8297C28.957 19.899 29.0698 20.0604 29.0698 20.2487V23.1954C29.0698 23.3257 29.1399 23.4382 29.2382 23.4864C29.2713 23.5025 29.3069 23.5112 29.3447 23.5112C29.4964 23.5112 29.6193 23.3695 29.6193 23.1954V20.2487C29.6193 19.9976 29.8204 19.794 30.0686 19.794C30.1305 19.794 30.1894 19.8067 30.2432 19.8297C30.4036 19.899 30.5163 20.0604 30.5163 20.2487V25.5771C30.5163 26.2535 29.9911 26.8028 29.3447 26.8028C29.1834 26.8028 29.0298 26.7679 28.8892 26.7063C28.8416 26.685 28.7977 26.6564 28.7539 26.6287C28.7332 26.6157 28.7106 26.6072 28.6908 26.5932C28.3796 26.3727 28.1742 25.9992 28.1742 25.5771V20.2487ZM28.1742 28.682C28.1742 28.4321 28.3748 28.2279 28.6221 28.2279C28.6837 28.2279 28.7429 28.24 28.7965 28.2632C28.957 28.3325 29.0698 28.4945 29.0698 28.682V31.6282C29.0698 31.8024 29.1945 31.9445 29.3447 31.9445C29.3706 31.9445 29.3942 31.9345 29.418 31.9268C29.4293 31.9236 29.4411 31.9237 29.4515 31.9189C29.5504 31.8713 29.6193 31.7591 29.6193 31.6282V28.682C29.6193 28.4321 29.8204 28.2279 30.0686 28.2279C30.1305 28.2279 30.1894 28.24 30.2432 28.2632C30.4036 28.3325 30.5163 28.4945 30.5163 28.682V34.0103C30.5163 34.5174 30.2209 34.9532 29.8003 35.1392C29.6604 35.2022 29.5061 35.2362 29.3447 35.2362C28.6997 35.2362 28.1742 34.6864 28.1742 34.0103V28.682ZM13.8305 32.7353C13.8305 33.4114 13.3051 33.9609 12.6594 33.9609C12.0128 33.9609 11.4865 33.4114 11.4865 32.7353V15.8601C11.4865 15.6099 11.6886 15.406 11.9361 15.406C12.0344 15.406 12.1243 15.4392 12.198 15.4935C12.3105 15.5765 12.3842 15.7089 12.3842 15.8601V30.3019C12.3842 30.477 12.5063 30.6186 12.6594 30.6186C12.8102 30.6186 12.9335 30.477 12.9335 30.3019V17.8042C12.9335 17.5541 13.1338 17.3509 13.3826 17.3509C13.4441 17.3509 13.5034 17.3634 13.5569 17.3864C13.7178 17.4555 13.8305 17.6167 13.8305 17.8042V32.7353ZM9.87549 34.5216C9.87549 34.606 9.8674 34.6878 9.85152 34.768C9.83081 34.8755 9.79224 34.9745 9.74642 35.0697C9.70485 35.1551 9.65464 35.2341 9.59626 35.3066C9.38093 35.5732 9.06338 35.7467 8.70426 35.7467C8.0578 35.7467 7.53269 35.1962 7.53269 34.5216V14.2086C7.53269 13.9573 7.73291 13.7539 7.98022 13.7539C8.05938 13.7539 8.13257 13.7763 8.197 13.8122C8.21311 13.8214 8.22874 13.8304 8.24342 13.8414C8.35585 13.9237 8.42956 14.0567 8.42956 14.2086V30.0461C8.42956 30.2198 8.55272 30.3616 8.70426 30.3616C8.85546 30.3616 8.97901 30.2198 8.97901 30.0461V13.8926C8.97901 13.642 9.1793 13.4381 9.4269 13.4381C9.61231 13.4381 9.77191 13.5527 9.84026 13.7159C9.86318 13.7702 9.87549 13.8295 9.87549 13.8926V34.5216ZM42.2363 39.4059V13.8324C42.2363 11.6758 40.5524 10.467 38.4463 10.467C35.8083 10.467 33.8871 12.3679 32.7834 14.2489L31.6523 3.17107H27.4472C27.4472 3.17107 26.1202 5.06065 25.723 5.6282H20.9158C20.5194 5.05758 19.2096 3.17107 19.2096 3.17107H14.9026L14.0041 14.2013C12.8967 12.3361 10.9838 10.467 8.36749 10.467C6.26241 10.467 4.57861 11.6758 4.57861 13.8324V39.4059H6.26059C9.40166 39.4059 12.2952 37.8997 13.8709 36.3826V40.7919H9.92502L8.31577 43.9318H9.06028L10.751 42.7323H12.9453L12.1633 43.5914L11.8941 46.0598H12.5613L15.5755 42.7323H20.3575L21.3952 43.9318H22.0634L21.2499 40.7919H17.3334L19.4471 38.4585H27.3245L29.438 40.7919H25.5215L24.7086 43.9318H25.3758L26.4138 42.7323H31.1955L34.2088 46.0592H34.8765L34.6073 43.5896L33.8257 42.7323H36.0206L37.7123 43.9318H38.4552L36.8475 40.7919H32.9413V36.3782C34.5167 37.8971 37.4108 39.4059 40.5557 39.4059H42.2363Z" fill="#094270"/>
<path d="M21.0356 11.4443C21.0356 12.2823 20.3662 12.9623 19.539 12.9623C18.713 12.9623 18.0425 12.2823 18.0425 11.4443C18.0425 10.6063 18.713 9.9261 19.539 9.9261C20.3662 9.9261 21.0356 10.6063 21.0356 11.4443ZM22.1345 11.4443C22.1345 9.99001 20.9732 8.81116 19.539 8.81116C18.1062 8.81116 16.9434 9.99001 16.9434 11.4443C16.9434 12.8988 18.1062 14.077 19.539 14.077C20.9732 14.077 22.1345 12.8988 22.1345 11.4443Z" fill="#094270"/>
<path d="M28.6474 11.4443C28.6474 12.2823 27.9782 12.9623 27.1504 12.9623C26.3247 12.9623 25.654 12.2823 25.654 11.4443C25.654 10.6063 26.3247 9.9261 27.1504 9.9261C27.9782 9.9261 28.6474 10.6063 28.6474 11.4443ZM29.7462 11.4443C29.7462 9.99001 28.5848 8.81116 27.1504 8.81116C25.7179 8.81116 24.5552 9.99001 24.5552 11.4443C24.5552 12.8988 25.7179 14.077 27.1504 14.077C28.5848 14.077 29.7462 12.8988 29.7462 11.4443Z" fill="#094270"/>
</svg>
