<svg width="87" height="86" viewBox="0 0 87 86" fill="none" xmlns="http://www.w3.org/2000/svg">
<g id="Frame">
<path id="Vector" d="M14.8213 42.1151H13.7726V47.9274H14.8213C16.4841 47.9274 17.7276 46.6242 17.7276 45.0214C17.7276 43.4182 16.4841 42.1151 14.8213 42.1151ZM10.8813 39.7931C10.8813 39.5683 10.9866 39.4635 11.1958 39.4635H15.0909C17.8921 39.4635 20.6336 41.9354 20.6336 45.0214C20.6336 47.9426 18.1617 50.5789 15.0909 50.5789H11.1958C10.9866 50.5789 10.8813 50.4741 10.8813 50.2493V39.7931Z" fill="#F8FAFC"/>
<path id="Vector_2" d="M22.3267 39.7933C22.3267 39.5686 22.4315 39.4637 22.6562 39.4637H30.1013C30.3258 39.4637 30.431 39.5686 30.431 39.7933V41.7109C30.431 41.9205 30.3258 42.0405 30.1013 42.0405H25.2178V43.8829H28.9326C29.1574 43.8829 29.2922 44.0025 29.2922 44.2273V45.7704C29.2922 45.9952 29.1722 46.1001 28.9326 46.1001H25.2178V48.0172H30.251C30.4609 48.0172 30.5806 48.1372 30.5806 48.3472V50.2496C30.5806 50.474 30.4609 50.5792 30.251 50.5792H22.6562C22.4315 50.5792 22.3267 50.474 22.3267 50.2496V39.7933Z" fill="#F8FAFC"/>
<path id="Vector_3" d="M40.4981 50.2493C40.4233 50.4741 40.2737 50.5789 40.0485 50.5789H38.2961C38.0713 50.5789 37.9217 50.4741 37.8321 50.2493L33.817 39.7782C33.727 39.5538 33.817 39.4486 34.0266 39.4486L36.4237 39.4635C36.6333 39.4635 36.7833 39.5538 36.8578 39.793L39.1653 46.5042L41.442 39.793C41.5169 39.5686 41.6817 39.4635 41.8913 39.4635H44.3032C44.5277 39.4635 44.6028 39.5686 44.5132 39.793L40.4981 50.2493Z" fill="#F8FAFC"/>
<path id="Vector_4" d="M45.9209 39.7933C45.9209 39.5686 46.026 39.4637 46.2353 39.4637H48.4828C48.692 39.4637 48.812 39.5686 48.812 39.7933V50.2496C48.812 50.474 48.692 50.5792 48.4828 50.5792H46.2353C46.026 50.5792 45.9209 50.474 45.9209 50.2496V39.7933Z" fill="#F8FAFC"/>
<path id="Vector_5" d="M53.9953 43.7781V50.2496C53.9953 50.474 53.8753 50.5792 53.6361 50.5792H51.5386C51.3293 50.5792 51.2241 50.474 51.2241 50.2496V39.7933C51.2241 39.6137 51.3293 39.4637 51.5386 39.4637H53.9653C54.1901 39.4637 54.37 39.5837 54.5048 39.7933L58.25 45.8604V39.7933C58.25 39.6137 58.3696 39.4637 58.5944 39.4637H60.6764C60.8264 39.4637 61.036 39.5985 61.036 39.7933V50.2496C61.036 50.474 60.9164 50.5792 60.6764 50.5792H58.4745C58.2648 50.5792 58.0701 50.474 57.9352 50.2496L53.9953 43.7781Z" fill="#F8FAFC"/>
<path id="Vector_6" d="M70.9235 47.4483L72.1517 49.2459C72.3015 49.4555 72.2713 49.5755 72.0469 49.7251C71.2534 50.2943 70.1744 50.7439 68.8266 50.7439C65.6504 50.7439 63.0737 48.1671 63.0737 44.9916C63.0737 41.816 65.6504 39.2841 68.8266 39.2841C70.1744 39.2841 71.2534 39.7485 72.0771 40.3328C72.227 40.4376 72.2417 40.6172 72.1819 40.7224L70.8785 42.5948C70.7582 42.7444 70.5641 42.7292 70.4142 42.5948C69.9197 42.2052 69.4407 42.0404 68.8266 42.0404C67.1636 42.0404 65.9201 43.3287 65.9201 44.9916C65.9201 46.6543 67.1636 47.9875 68.8266 47.9875C69.4555 47.9875 69.995 47.7179 70.3847 47.4483C70.5943 47.2984 70.7885 47.2535 70.9235 47.4483Z" fill="#F8FAFC"/>
<path id="Vector_7" d="M74.0845 39.7933C74.0845 39.5686 74.19 39.4637 74.3996 39.4637H76.6463C76.856 39.4637 76.9762 39.5686 76.9762 39.7933V50.2496C76.9762 50.474 76.856 50.5792 76.6463 50.5792H74.3996C74.19 50.5792 74.0845 50.474 74.0845 50.2496V39.7933Z" fill="#F8FAFC"/>
<path id="Vector_8" d="M37.0086 57.8888H34.6794V59.9873C34.6794 60.0783 34.6373 60.1269 34.5256 60.1269H33.7909C33.6999 60.1269 33.6582 60.0783 33.6582 59.9873V55.0841C33.6582 55 33.6999 54.9369 33.7909 54.9369H34.5463C34.6025 54.9369 34.6794 54.9652 34.6794 55.0769V56.9027H37.0086V55.0841C37.0086 55 37.0506 54.9369 37.1417 54.9369H37.897C37.9529 54.9369 38.0225 54.9652 38.0225 55.0769V59.9873C38.0225 60.0783 37.9808 60.1269 37.876 60.1269H37.1417C37.0506 60.1269 37.0086 60.0783 37.0086 59.9873V57.8888Z" fill="#F8FAFC"/>
<path id="Vector_9" d="M39.228 55.084C39.228 54.993 39.277 54.9371 39.368 54.9371H40.1234C40.2141 54.9371 40.2561 54.993 40.2561 55.084V59.9872C40.2561 60.0782 40.2141 60.1268 40.1234 60.1268H39.368C39.2702 60.1268 39.228 60.0782 39.228 59.9872V55.084Z" fill="#F8FAFC"/>
<path id="Vector_10" d="M44.775 59.015V57.9448C44.775 57.8538 44.8167 57.8049 44.9149 57.8049H45.5372C45.6004 57.8049 45.6703 57.8327 45.6703 57.9448V59.5324C45.6703 59.5955 45.6493 59.6445 45.6004 59.6865C45.1808 59.9731 44.6071 60.1971 43.9775 60.1971C42.4948 60.1971 41.2915 59.0008 41.2915 57.518C41.2915 56.0421 42.4809 54.8602 43.9634 54.8602C44.5933 54.8602 45.0897 55.0492 45.5304 55.3846C45.6072 55.4408 45.6072 55.5105 45.5655 55.5666L45.1528 56.161C45.1108 56.21 45.0408 56.2379 44.9566 56.182C44.6839 55.9793 44.3623 55.8394 43.9775 55.8394C43.0053 55.8394 42.2779 56.5737 42.2779 57.518C42.2779 58.4692 43.0264 59.2666 43.9775 59.2528C44.2434 59.2528 44.5512 59.1828 44.775 59.015Z" fill="#F8FAFC"/>
<path id="Vector_11" d="M50.1418 57.8888H47.8122V59.9873C47.8122 60.0783 47.7705 60.1269 47.6585 60.1269H46.9241C46.8331 60.1269 46.791 60.0783 46.791 59.9873V55.0841C46.791 55 46.8331 54.9369 46.9241 54.9369H47.6795C47.7357 54.9369 47.8122 54.9652 47.8122 55.0769V56.9027H50.1418V55.0841C50.1418 55 50.1835 54.9369 50.2745 54.9369H51.0299C51.0857 54.9369 51.1557 54.9652 51.1557 55.0769V59.9873C51.1557 60.0783 51.1137 60.1269 51.0092 60.1269H50.2745C50.1835 60.1269 50.1418 60.0783 50.1418 59.9873V57.8888Z" fill="#F8FAFC"/>
<path id="Vector_12" d="M52.3608 55.0769C52.3608 54.9859 52.4029 54.9369 52.4939 54.9369H55.9143C56.005 54.9369 56.0539 54.9859 56.0539 55.0769V55.7554C56.0539 55.8464 56.005 55.8953 55.9143 55.8953H53.382V56.9514H55.3127C55.4034 56.9514 55.4665 56.9934 55.4665 57.0913V57.756C55.4665 57.8467 55.4106 57.8956 55.3127 57.8956H53.382V59.1757H55.9771C56.068 59.1757 56.1239 59.2247 56.1239 59.3157V59.9873C56.1239 60.078 56.068 60.1269 55.9771 60.1269H52.4939C52.4029 60.1269 52.3608 60.078 52.3608 59.9873V55.0769Z" fill="#F8FAFC"/>
<path id="Vector_13" d="M58.0344 55.8393V57.4059H59.1256C59.6082 57.4059 59.9719 57.0774 59.9719 56.6227C59.9719 56.182 59.6082 55.8393 59.1256 55.8393H58.0344ZM57.0132 55.0771C57.0132 54.9999 57.0552 54.9371 57.1463 54.9371H59.3707C60.3284 54.9371 61.0145 55.7625 61.0145 56.6437C61.0145 57.2315 60.6573 57.7838 60.1329 58.0917L61.0841 59.9803C61.1189 60.0431 61.0841 60.1272 60.9931 60.1272H60.0908C60.014 60.1272 59.9719 60.0989 59.9302 60.0082L59.0976 58.3296H58.0344V59.9872C58.0344 60.0782 57.9926 60.1272 57.8948 60.1272H57.1463C57.0552 60.1272 57.0132 60.0782 57.0132 59.9872V55.0771Z" fill="#F8FAFC"/>
<path id="Vector_14" d="M33.6582 62.0737C33.6582 61.9827 33.6999 61.9337 33.7909 61.9337H37.2116C37.3023 61.9337 37.3513 61.9827 37.3513 62.0737V62.7522C37.3513 62.8432 37.3023 62.8921 37.2116 62.8921H34.6794V63.9481H36.61C36.7007 63.9481 36.7638 63.9903 36.7638 64.0882V64.7528C36.7638 64.8435 36.708 64.8925 36.61 64.8925H34.6794V66.1726H37.2744C37.3654 66.1726 37.4212 66.2215 37.4212 66.3125V66.9841C37.4212 67.0748 37.3654 67.1237 37.2744 67.1237H33.7909C33.6999 67.1237 33.6582 67.0748 33.6582 66.9841V62.0737Z" fill="#F8FAFC"/>
<path id="Vector_15" d="M40.0319 62.878H39.3396V66.1794H40.0319C40.9903 66.1794 41.7181 65.4451 41.7181 64.5288C41.7181 63.6124 40.9903 62.878 40.0319 62.878ZM38.3115 62.0737C38.3115 61.9827 38.3601 61.9337 38.4511 61.9337H40.1229C41.445 61.9337 42.7458 63.067 42.7458 64.5288C42.7458 65.9278 41.6057 67.0748 40.1511 67.1237H38.4511C38.3601 67.1237 38.3115 67.0748 38.3115 66.9841V62.0737Z" fill="#F8FAFC"/>
<path id="Vector_16" d="M44.6359 65.0744C44.6359 65.7249 45.0907 66.2635 45.7482 66.2635C46.3987 66.2635 46.8535 65.7249 46.8535 65.0744V62.0878C46.8535 62.0036 46.9235 61.934 47.0141 61.934H47.7068C47.7905 61.934 47.8816 61.9967 47.8816 62.0878V65.0744C47.8816 66.2497 46.9235 67.2077 45.7482 67.2077C44.5663 67.2077 43.6079 66.2497 43.6079 65.0744V62.0878C43.6079 62.0177 43.671 61.934 43.7548 61.934H44.4753C44.545 61.934 44.6359 62.0036 44.6359 62.0878V65.0744Z" fill="#F8FAFC"/>
<path id="Vector_17" d="M52.7375 65.9136L53.0875 66.5083C53.1574 66.592 53.1361 66.648 53.0523 66.711C52.6537 67.012 52.1642 67.2003 51.5347 67.2003C50.0515 67.2003 48.8486 66.0046 48.8486 64.5218C48.8486 63.039 50.0515 61.8568 51.5347 61.8568C52.1642 61.8568 52.6537 62.0457 53.0595 62.3394C53.1295 62.4022 53.1223 62.4794 53.1016 62.5142L52.7303 63.1438C52.6886 63.1996 52.6186 63.1996 52.5348 63.1507C52.2059 62.9476 51.9122 62.829 51.5347 62.829C50.59 62.829 49.8839 63.5706 49.8839 64.5218C49.8839 65.4661 50.59 66.2425 51.5347 66.2425C51.9122 66.2425 52.269 66.1025 52.5138 65.9136C52.5979 65.8505 52.6744 65.8367 52.7375 65.9136Z" fill="#F8FAFC"/>
<path id="Vector_18" d="M55.4317 65.2562H56.9144L56.1801 63.2766L55.4317 65.2562ZM55.7116 62.0665C55.7536 61.9754 55.8164 61.9337 55.8861 61.9337H56.4735C56.5507 61.9337 56.6138 61.9754 56.6486 62.0665L58.6211 66.9769C58.6631 67.0679 58.6138 67.1237 58.5231 67.1237H57.7609C57.6771 67.1237 57.6209 67.0886 57.586 66.9976L57.2502 66.1584H55.1031L54.7742 66.9976C54.739 67.0886 54.6763 67.1237 54.5991 67.1237H53.8299C53.7389 67.1237 53.6972 67.0748 53.7389 66.9769L55.7116 62.0665Z" fill="#F8FAFC"/>
<path id="Vector_19" d="M58.6992 62.0667C58.6992 61.9757 58.7409 61.934 58.832 61.934H62.5044C62.5954 61.934 62.644 61.9757 62.644 62.0667V62.7314C62.644 62.822 62.5954 62.871 62.5044 62.871H61.1615V66.984C61.1615 67.075 61.1194 67.1237 61.0284 67.1237H60.2727C60.182 67.1237 60.14 67.075 60.14 66.984V62.871H58.832C58.7409 62.871 58.6992 62.822 58.6992 62.7314V62.0667Z" fill="#F8FAFC"/>
<path id="Vector_20" d="M63.5547 62.0808C63.5547 61.9898 63.604 61.934 63.6946 61.934H64.4504C64.5411 61.934 64.5828 61.9898 64.5828 62.0808V66.984C64.5828 67.075 64.5411 67.1237 64.4504 67.1237H63.6946C63.5967 67.1237 63.5547 67.075 63.5547 66.984V62.0808Z" fill="#F8FAFC"/>
<path id="Vector_21" d="M68.2775 62.8361C67.3399 62.8361 66.6403 63.5845 66.6403 64.5288C66.6403 65.4659 67.3399 66.2144 68.2775 66.2144C69.2215 66.2144 69.9283 65.4659 69.9283 64.5288C69.9283 63.5845 69.2215 62.8361 68.2775 62.8361ZM68.2775 67.1935C66.8017 67.1935 65.6191 66.0044 65.6191 64.5288C65.6191 63.046 66.8017 61.8569 68.2775 61.8569C69.7529 61.8569 70.9562 63.046 70.9562 64.5288C70.9562 66.0044 69.7529 67.1935 68.2775 67.1935Z" fill="#F8FAFC"/>
<path id="Vector_22" d="M72.0068 62.0877C72.0068 62.0036 72.0559 61.934 72.1607 61.934H72.979C73.0489 61.934 73.147 61.9688 73.1819 62.0388L75.4831 65.3474V62.0388C75.5113 61.955 75.5812 61.934 75.637 61.934H76.3438C76.4137 61.934 76.5118 61.9967 76.5118 62.0877V66.9699C76.5118 67.075 76.4553 67.1237 76.3438 67.1237H75.6511C75.5396 67.1237 75.5046 67.075 75.4482 67.0119L73.0214 63.5147V66.9699C73.0281 67.075 72.979 67.1237 72.8675 67.1237H72.1607C72.0559 67.1237 72.0068 67.075 72.0068 66.9699V62.0877Z" fill="#F8FAFC"/>
<path id="Vector_23" d="M41.4262 18.8658L38.1352 25.2694C38.1352 25.2694 34.9971 20.3665 36.5913 17.5664C37.939 15.4737 39.9069 16.4394 40.1913 16.6655C40.476 16.8913 41.3414 17.3664 41.4262 18.8658Z" fill="#F8FAFC"/>
<path id="Vector_24" d="M34.2496 27.7698L28.809 17.2284H25.1772L33.726 33.7915C34.8965 32.9278 35.4108 30.0204 34.2496 27.7698Z" fill="#F8FAFC"/>
</g>
</svg>
