<svg width="57" height="59" viewBox="0 0 57 59" fill="none" xmlns="http://www.w3.org/2000/svg">
<path d="M17.9571 15.0507L10.3931 0.341309H5.34375L17.2295 23.4537C18.8561 22.2485 19.5713 18.1911 17.9571 15.0507Z" fill="#007F7F"/>
<path d="M27.9976 3.99665L23.4222 12.9327C23.4222 12.9327 19.0596 6.0909 21.2758 2.18374C23.1492 -0.736823 25.8846 0.610782 26.2806 0.926741C26.6766 1.24179 27.88 1.90467 27.9976 3.99665Z" fill="#007F7F"/>
<path d="M8.13667 57.4236H1.63867V29.6614H8.13667V57.4236Z" fill="black"/>
<path d="M32.441 34.7246H21.9673V40.7319H31.928V45.7094H21.9673V57.4236H15.4692V29.6614H32.441V34.7246Z" fill="black"/>
<path d="M56.5973 34.7246H49.287V57.4236H42.7463V34.7246H35.436V29.6614H56.5973V34.7246Z" fill="black"/>
</svg>
